<svg xmlns="http://www.w3.org/2000/svg" viewBox="0 0 297.5 333.77"><defs><style>.cls-1,.cls-11,.cls-13,.cls-14,.cls-15,.cls-16,.cls-17,.cls-6{fill:none;stroke-miterlimit:10;}.cls-1,.cls-11{stroke:#ea5c67;}.cls-1{stroke-width:0.75px;}.cls-2{font-size:14px;letter-spacing:0.28em;}.cls-2,.cls-22,.cls-3,.cls-5,.cls-7{fill:#ea5c67;}.cls-2,.cls-3{font-family:HiraKakuProN-W6-83pv-RKSJ-H, Hiragino Kaku Gothic ProN;}.cls-3{font-size:11px;}.cls-4{letter-spacing:-0.5em;}.cls-5{font-size:15px;letter-spacing:0.66em;}.cls-12,.cls-18,.cls-21,.cls-22,.cls-5{font-family:HiraginoSans-W2-83pv-RKSJ-H, Hiragino Sans;}.cls-13,.cls-14,.cls-15,.cls-16,.cls-17,.cls-6{stroke:#727171;}.cls-6{stroke-dasharray:2 2 2;}.cls-8{fill:#9fa0a0;}.cls-9{fill:#fff;}.cls-10{fill:#727171;}.cls-11{stroke-width:0.5px;}.cls-12,.cls-18{font-size:10px;}.cls-12,.cls-18,.cls-21{fill:#595857;}.cls-12,.cls-21{letter-spacing:0.24em;}.cls-14{stroke-dasharray:1.88 1.88 1.88 1.88;}.cls-15{stroke-dasharray:1.88 1.88 1.88 1.88 1.88 1.88;}.cls-16{stroke-dasharray:1.56 1.56 1.56 1.56;}.cls-17{stroke-dasharray:1.56 1.56 1.56 1.56 1.56 1.56;}.cls-18{letter-spacing:0.16em;}.cls-19{letter-spacing:0.41em;}.cls-20{letter-spacing:-0.04em;}.cls-21,.cls-22{font-size:12px;}.cls-22{letter-spacing:0.2em;}.cls-23{letter-spacing:0.45em;}.cls-24{letter-spacing:0.45em;}.cls-25{letter-spacing:0.2em;}.cls-26{letter-spacing:0.45em;}.cls-27{letter-spacing:0.2em;}.cls-28{letter-spacing:0.22em;}.cls-29{fill:#b5b6b6;}</style></defs><title>Asset 1</title><g id="Layer_2" data-name="Layer 2"><g id="レイヤー_1" data-name="レイヤー 1"><rect class="cls-1" x="91.88" y="24.65" width="72.61" height="181.52" rx="5.67" ry="5.67"/><text class="cls-2" transform="translate(109.3 55.23)">RPA</text><text class="cls-3" transform="translate(101.41 70.13)">（自動化<tspan class="cls-4" x="44" y="0">）</tspan></text><text class="cls-5" transform="translate(96 13.2)">導入後</text><polyline class="cls-6" points="20.75 107.09 20.75 166.74 91.85 166.74"/><line class="cls-6" x1="240.51" y1="67.21" x2="164.31" y2="67.21"/><path class="cls-7" d="M124,81.1h9.91l-5,8.64Z"/><path class="cls-8" d="M60.95,170.8v-7.93l11.38,4Z"/><path class="cls-7" d="M124,99.72h9.91l-5,8.64Z"/><path class="cls-7" d="M124,118.33h9.91l-5,8.64Z"/><rect class="cls-9" x="200.28" y="48.64" width="22.28" height="39.67" rx="4.54" ry="4.54"/><g id="_19" data-name="19"><path class="cls-10" d="M203.19,48.37a3.32,3.32,0,0,0-3.32,3.32V85.12a3.32,3.32,0,0,0,3.32,3.32h16.75a3.32,3.32,0,0,0,3.32-3.32V51.69a3.32,3.32,0,0,0-3.32-3.32Zm18.68,3.32V85.12A1.93,1.93,0,0,1,219.94,87H203.19a1.93,1.93,0,0,1-1.93-1.93V51.69a1.93,1.93,0,0,1,1.93-1.93h16.75A1.93,1.93,0,0,1,221.87,51.69Z"/><path class="cls-10" d="M203.4,52.65a.7.7,0,0,0-.69.69v27a.7.7,0,0,0,.69.69h16.33a.69.69,0,0,0,.69-.69v-27a.69.69,0,0,0-.69-.69Zm.69,1.39H219v25.6H204.09Z"/><path class="cls-10" d="M211.56,82a2,2,0,1,0,2,2A2,2,0,0,0,211.56,82Zm0,2.66a.64.64,0,1,1,.64-.64A.64.64,0,0,1,211.56,84.68Z"/></g><path class="cls-10" d="M27.42,44.84A1.88,1.88,0,1,0,25.63,43,1.83,1.83,0,0,0,27.42,44.84Zm-13.1,0A1.88,1.88,0,1,0,12.53,43,1.83,1.83,0,0,0,14.31,44.84ZM5.67,47.26l.17.1C5.79,49,5.35,52.24,2.7,52.24c0,0,4,3.27,8.46,1.8A19.3,19.3,0,0,0,13.07,56c2.44,2.11,5.22,3.48,7.8,3.5A12.19,12.19,0,0,0,29.13,56a16.8,16.8,0,0,0,1.69-1.86c4.42,1.33,8.28-1.86,8.28-1.86C36.44,52.24,36,49,36,47.32l.09-.05a6.42,6.42,0,0,0,3-4.9c0-.18,0-.36,0-.54a4.41,4.41,0,0,0-1-2.95,3.3,3.3,0,0,0-2.47-1.16,3,3,0,0,0-.52,0,11.68,11.68,0,0,0-3.25-10.91C29,24.19,26.84,24,25.38,24.57c-2.81-2-7.54-3.69-13.29.69C6.85,29.26,6.56,36,6.58,37.75l-.37,0a3.3,3.3,0,0,0-2.47,1.16,4.41,4.41,0,0,0-1,2.95c0,.18,0,.36,0,.54A6.42,6.42,0,0,0,5.67,47.26Zm1.55-9.42v0l-.05,0Zm-1,1.75a1.48,1.48,0,0,1,.69.21c0,.22,0,.47,0,.72,0,.49,0,1,.05,1.48a.91.91,0,0,0,1,.85.93.93,0,0,0,.81-1c0-.39,0-.86,0-1.31s0-.78,0-1.09L8.78,39a12.74,12.74,0,0,0,2.47.39,13.55,13.55,0,0,0,12.48-7.29c1.1,3.58,3.84,6.28,7.32,6.7a7.51,7.51,0,0,0,1.85,0c0,.21.1.42.15.63s0,.68,0,1.09,0,.93,0,1.31a.93.93,0,0,0,.81,1,.91.91,0,0,0,1-.85c0-.47.05-1,.05-1.48,0-.25,0-.5,0-.72a1.48,1.48,0,0,1,.69-.21c.82,0,1.7.74,1.72,2.23l0,.35a4.48,4.48,0,0,1-1.93,3.37,6,6,0,0,1-2,.93l-.24,0a.88.88,0,0,0-.4.23,1,1,0,0,0-.28.68l0,.09a17.16,17.16,0,0,1-4.41,7,10.46,10.46,0,0,1-7.08,3c-1.94,0-4.46-1.14-6.66-3.06a16.87,16.87,0,0,1-4.83-7l0-.08a1,1,0,0,0-.28-.68l-.28-.19-.24-.07H8.5l-.11,0L8,46.33a6.18,6.18,0,0,1-1.35-.66,4.51,4.51,0,0,1-2.12-3.5l0-.35C4.5,40.32,5.39,39.6,6.21,39.59ZM37.1,63.21a15.53,15.53,0,0,0-8.79-4.66l-2.11,6-.64.24a13,13,0,0,1-4.21.71A12,12,0,0,1,15.71,64l-1.87-5.54a15.38,15.38,0,0,0-9.2,4.73A17,17,0,0,0,0,75V85.55a1,1,0,0,0,.26.66.88.88,0,0,0,.63.27H40.84a.88.88,0,0,0,.63-.27,1,1,0,0,0,.26-.66V75A17,17,0,0,0,37.1,63.21ZM20.92,79.41,16.34,65.87a13.12,13.12,0,0,0,5,1,14.19,14.19,0,0,0,4.24-.67Z"/><path class="cls-10" d="M21.17,53.12a7.64,7.64,0,0,1-4.23-1.25.8.8,0,0,1,.94-1.3h0a6.38,6.38,0,0,0,6.78,0,.8.8,0,0,1,.79,1.39A8.56,8.56,0,0,1,21.17,53.12Z"/><rect class="cls-11" x="4.35" y="245.68" width="249.49" height="20.87"/><rect class="cls-11" x="4.35" y="279.04" width="249.49" height="20.87"/><text class="cls-12" transform="translate(18.3 184.29)">支払い金額<tspan x="0" y="12">確認のみ</tspan></text><line class="cls-13" x1="164.27" y1="166.74" x2="165.27" y2="166.74"/><line class="cls-14" x1="167.16" y1="166.74" x2="173.75" y2="166.74"/><line class="cls-15" x1="174.69" y1="166.74" x2="230.28" y2="166.74"/><polyline class="cls-13" points="231.22 166.74 232.22 166.74 232.22 165.74"/><line class="cls-16" x1="232.22" y1="164.18" x2="232.22" y2="158.71"/><line class="cls-17" x1="232.22" y1="157.93" x2="232.22" y2="149.33"/><line class="cls-13" x1="232.22" y1="148.54" x2="232.22" y2="147.54"/><path class="cls-8" d="M235.89,149.78H228l4-11.38Z"/><text class="cls-12" transform="translate(197.94 184.29)">支払い</text><text class="cls-12" transform="translate(223.1 31.82)">業務委託講師</text><text class="cls-18" transform="translate(187 117.36)">業務報告・経費申請<tspan x="0" y="14">スマホで簡単操</tspan><tspan class="cls-19" x="81.2" y="14">作</tspan><tspan class="cls-20" x="95.3" y="14">!</tspan><tspan x="97.88" y="14">!</tspan></text><text class="cls-21" transform="translate(0.89 101.02)">従業員</text><text class="cls-22" transform="translate(34.23 260.79)">作業工<tspan class="cls-23" x="43.2" y="0">数</tspan><tspan x="60.6" y="0">80</tspan><tspan class="cls-24" x="80.81" y="0">%</tspan><tspan class="cls-25" x="96.59" y="0">削減に成</tspan><tspan class="cls-26" x="154.19" y="0">功</tspan><tspan class="cls-27" x="171.59" y="0">!!</tspan></text><text class="cls-22" transform="translate(32.12 294.16)">従業員の作業負担減に成<tspan class="cls-26" x="158.4" y="0">功</tspan><tspan class="cls-27" x="175.8" y="0">!!</tspan></text><rect class="cls-11" x="4.35" y="312.65" width="249.49" height="20.87"/><text class="cls-22" transform="translate(32 327.77)">他の重要な仕事にアサイ<tspan class="cls-26" x="158.4" y="0">ン</tspan><tspan class="cls-28" x="175.8" y="0">!!</tspan></text><line class="cls-1" x1="128.97" y1="205.8" x2="128.97" y2="246.13"/><path class="cls-10" d="M195.38,64.34a.69.69,0,0,0-1,0,4.54,4.54,0,0,0,0,6.42.69.69,0,1,0,1-1,3.15,3.15,0,0,1,0-4.45A.69.69,0,0,0,195.38,64.34Z"/><path class="cls-10" d="M191.54,60.5a.69.69,0,0,0-1,0,10,10,0,0,0,0,14.1.69.69,0,0,0,1-1,8.58,8.58,0,0,1,0-12.13A.69.69,0,0,0,191.54,60.5Z"/><path class="cls-10" d="M187,56a.69.69,0,0,0-1,0,16.34,16.34,0,0,0,0,23.1.69.69,0,0,0,1-1A14.95,14.95,0,0,1,187,57,.69.69,0,0,0,187,56Z"/><path class="cls-10" d="M250.51,51.32a6.24,6.24,0,0,0,4.55-1.93,6.81,6.81,0,0,0,1.84-4.73,6.62,6.62,0,0,0-6.26-6.71h0A6.45,6.45,0,0,0,246,40,6.91,6.91,0,0,0,244,44.76,6.6,6.6,0,0,0,246,49.33,6.36,6.36,0,0,0,250.51,51.32Zm-3.26-10.1a4.72,4.72,0,0,1,3.38-1.54,4.86,4.86,0,0,1,4.54,5,5.08,5.08,0,0,1-1.36,3.53,4.52,4.52,0,0,1-3.31,1.4,4.62,4.62,0,0,1-3.28-1.46,4.87,4.87,0,0,1-1.42-3.37A5.16,5.16,0,0,1,247.25,41.22Z"/><path class="cls-10" d="M255.71,54.05a42.2,42.2,0,0,0-10.16,0,6.73,6.73,0,0,0-5.9,6.7v6.59a.87.87,0,0,0,1.74,0V60.75a5,5,0,0,1,4.37-5,40.48,40.48,0,0,1,9.75,0,5,5,0,0,1,4.36,5v6.59a.87.87,0,0,0,1.74,0V60.75A6.73,6.73,0,0,0,255.71,54.05Z"/><path class="cls-10" d="M250.51,85A6.24,6.24,0,0,0,255.06,83a6.81,6.81,0,0,0,1.84-4.73,6.62,6.62,0,0,0-6.26-6.71h0A6.45,6.45,0,0,0,246,73.67,6.91,6.91,0,0,0,244,78.41,6.6,6.6,0,0,0,246,83,6.36,6.36,0,0,0,250.51,85Zm-3.26-10.1a4.72,4.72,0,0,1,3.38-1.54,4.86,4.86,0,0,1,4.54,5,5.08,5.08,0,0,1-1.36,3.53,4.52,4.52,0,0,1-3.31,1.4,4.62,4.62,0,0,1-3.28-1.46,4.87,4.87,0,0,1-1.42-3.37A5.16,5.16,0,0,1,247.25,74.87Z"/><path class="cls-10" d="M255.71,87.7a42.2,42.2,0,0,0-10.16,0,6.73,6.73,0,0,0-5.9,6.7V101a.87.87,0,0,0,1.74,0V94.4a5,5,0,0,1,4.37-5,40.48,40.48,0,0,1,9.75,0,5,5,0,0,1,4.36,5V101a.87.87,0,0,0,1.74,0V94.4A6.73,6.73,0,0,0,255.71,87.7Z"/><path class="cls-10" d="M276.58,67.44a6.24,6.24,0,0,0,4.55-1.93A6.81,6.81,0,0,0,283,60.77a6.62,6.62,0,0,0-6.26-6.71h0a6.45,6.45,0,0,0-4.61,2.08,6.91,6.91,0,0,0-1.94,4.74A6.6,6.6,0,0,0,272,65.45,6.36,6.36,0,0,0,276.58,67.44Zm-3.26-10.1a4.72,4.72,0,0,1,3.38-1.54,4.86,4.86,0,0,1,4.54,5,5.08,5.08,0,0,1-1.36,3.53,4.52,4.52,0,0,1-3.31,1.4,4.62,4.62,0,0,1-3.28-1.46,4.87,4.87,0,0,1-1.42-3.37A5.16,5.16,0,0,1,273.32,57.34Z"/><path class="cls-10" d="M281.78,70.18a42.2,42.2,0,0,0-10.16,0,6.73,6.73,0,0,0-5.9,6.7v6.59a.87.87,0,0,0,1.74,0V76.87a5,5,0,0,1,4.37-5,40.48,40.48,0,0,1,9.75,0,5,5,0,0,1,4.36,5v6.59a.87.87,0,0,0,1.74,0V76.87A6.73,6.73,0,0,0,281.78,70.18Z"/><circle class="cls-9" cx="128.18" cy="167.53" r="27.59"/><path class="cls-29" d="M128.18,195.27a27.74,27.74,0,1,1,27.74-27.74A27.78,27.78,0,0,1,128.18,195.27Zm0-55.18a27.44,27.44,0,1,0,27.44,27.44A27.47,27.47,0,0,0,128.18,140.09Z"/><circle class="cls-29" cx="128.18" cy="167.53" r="25.75"/><path class="cls-9" d="M116.65,165.52c-.42,0-.6-.18-.6-.6V154c0-.42.18-.6.6-.6H122c2.2,0,3.22.81,3.22,2.57v.81a1.73,1.73,0,0,1-1,1.81c1.44.13,2.11,1,2.11,2.6v1.54c0,1.88-1,2.75-3.25,2.75Zm3.17-7.41h1.43c.44,0,.64-.22.64-.67V157c0-.45-.2-.67-.64-.67h-1.43Zm0,4.56H122c.44,0,.64-.22.64-.67v-.65c0-.45-.2-.65-.64-.65h-2.18Z"/><path class="cls-9" d="M132.37,165.52H129.9c-.42,0-.6-.18-.6-.6v-4.43a7.78,7.78,0,0,1,.65-2.68l1.46-3.81a.79.79,0,0,1,.86-.55h4.51a.78.78,0,0,1,.84.55l1.46,3.81a7.78,7.78,0,0,1,.65,2.68v4.43c0,.42-.18.6-.6.6h-2.53c-.45,0-.65-.18-.65-.6v-2.35h-3v2.35C133,165.34,132.79,165.52,132.37,165.52Zm.77-6h2.63L135,157c-.08-.2-.18-.29-.32-.29h-.42c-.13,0-.23.08-.32.29Z"/><path class="cls-9" d="M113.21,173.39v-2.67H114c.55,0,.94.17.94.66a.6.6,0,0,1-.38.58v0a.61.61,0,0,1,.53.64c0,.53-.43.78-1,.78Zm.42-2.35v.79H114c.41,0,.58-.15.58-.4s-.19-.39-.57-.39Zm0,1.11v.91h.43c.42,0,.66-.15.66-.48s-.23-.43-.66-.43Z"/><path class="cls-9" d="M116.64,172.86c0-.43.36-.65,1.2-.74,0-.23-.09-.44-.38-.44a1.1,1.1,0,0,0-.58.2l-.16-.28a1.53,1.53,0,0,1,.81-.26c.5,0,.73.32.73.85v1.2h-.34l0-.23h0a1,1,0,0,1-.64.28A.55.55,0,0,1,116.64,172.86Zm1.2,0v-.49c-.59.07-.79.22-.79.45s.13.28.31.28A.71.71,0,0,0,117.83,172.87Z"/><path class="cls-9" d="M119.87,172.4a1,1,0,0,1,1-1.05.86.86,0,0,1,.59.23l-.21.27a.52.52,0,0,0-.36-.16c-.33,0-.57.28-.57.71s.23.7.56.7a.68.68,0,0,0,.44-.18l.17.28a1,1,0,0,1-.65.25A.94.94,0,0,1,119.87,172.4Z"/><path class="cls-9" d="M123.45,173.39H123v-2.9h.41v1.87h0l.78-1h.46l-.68.81.76,1.19h-.45l-.54-.9-.34.39Z"/><path class="cls-9" d="M126.16,172.4a.95.95,0,1,1,.94,1A1,1,0,0,1,126.16,172.4Zm1.45,0c0-.43-.2-.71-.51-.71s-.51.28-.51.71.2.7.51.7S127.61,172.82,127.61,172.4Z"/><path class="cls-9" d="M130.66,170.83a.54.54,0,0,0-.22-.05c-.18,0-.27.12-.27.36v.25h.4v.33h-.4v1.66h-.42v-1.66h-.27v-.31l.27,0v-.25c0-.41.19-.69.63-.69a.91.91,0,0,1,.35.07Z"/><path class="cls-9" d="M133.08,170.83a.54.54,0,0,0-.22-.05c-.18,0-.27.12-.27.36v.25h.4v.33h-.4v1.66h-.42v-1.66h-.27v-.31l.27,0v-.25c0-.41.19-.69.63-.69a.91.91,0,0,1,.35.07Z"/><path class="cls-9" d="M134.47,170.77a.25.25,0,0,1,.27-.25.25.25,0,1,1-.27.25Zm.47,2.62h-.41v-2h.41Z"/><path class="cls-9" d="M136.59,172.4a1,1,0,0,1,1-1.05.86.86,0,0,1,.59.23l-.21.27a.52.52,0,0,0-.36-.16c-.33,0-.57.28-.57.71s.23.7.56.7a.68.68,0,0,0,.44-.18l.17.28a1,1,0,0,1-.65.25A.94.94,0,0,1,136.59,172.4Z"/><path class="cls-9" d="M139.63,172.4a1,1,0,0,1,.91-1.05c.53,0,.81.38.81.95a1.1,1.1,0,0,1,0,.21H140a.6.6,0,0,0,.62.61.85.85,0,0,0,.48-.15l.15.27a1.21,1.21,0,0,1-.68.21A1,1,0,0,1,139.63,172.4Zm1.37-.18c0-.35-.16-.54-.45-.54a.54.54,0,0,0-.51.54Z"/><path class="cls-9" d="M115.18,178.48h-.45l-.23-.76h-.93l-.23.76h-.43l.89-2.67h.49Zm-1.5-1.09h.73l-.11-.36-.25-.89h0c-.08.31-.16.6-.25.89Z"/><path class="cls-9" d="M116.34,177.74v-1.26h.42v1.21c0,.35.1.48.33.48s.31-.09.48-.3v-1.39H118v2h-.34l0-.3h0a.84.84,0,0,1-.65.35C116.53,178.52,116.34,178.24,116.34,177.74Z"/><path class="cls-9" d="M119.56,177.82v-1h-.29v-.31l.31,0,0-.55H120v.55h.52v.33H120v1c0,.24.08.36.29.36a.6.6,0,0,0,.21,0l.08.31a1.28,1.28,0,0,1-.39.07C119.71,178.52,119.56,178.24,119.56,177.82Z"/><path class="cls-9" d="M121.66,177.48a.95.95,0,1,1,.94,1A1,1,0,0,1,121.66,177.48Zm1.45,0c0-.43-.2-.71-.51-.71s-.51.28-.51.71.2.7.51.7S123.11,177.9,123.11,177.48Z"/><path class="cls-9" d="M125.32,178.48h-.41v-2h.34l0,.28h0a.87.87,0,0,1,.62-.33.53.53,0,0,1,.55.37.92.92,0,0,1,.65-.37c.42,0,.61.28.61.79v1.26h-.42v-1.21c0-.35-.11-.48-.33-.48a.67.67,0,0,0-.45.27v1.42h-.42v-1.21c0-.35-.11-.48-.33-.48a.68.68,0,0,0-.45.27Z"/><path class="cls-9" d="M129.08,177.95c0-.43.36-.65,1.2-.74,0-.23-.09-.44-.38-.44a1.1,1.1,0,0,0-.58.2l-.16-.28a1.53,1.53,0,0,1,.81-.26c.5,0,.73.32.73.85v1.2h-.34l0-.23h0a1,1,0,0,1-.64.28A.55.55,0,0,1,129.08,177.95Zm1.2,0v-.49c-.59.07-.79.22-.79.45s.13.28.31.28A.71.71,0,0,0,130.28,178Z"/><path class="cls-9" d="M132.23,177.82v-1h-.29v-.31l.31,0,0-.55h.35v.55h.52v.33h-.52v1c0,.24.08.36.29.36a.6.6,0,0,0,.21,0l.08.31a1.28,1.28,0,0,1-.39.07C132.38,178.52,132.23,178.24,132.23,177.82Z"/><path class="cls-9" d="M134.41,175.86a.25.25,0,0,1,.27-.25.25.25,0,1,1-.27.25Zm.47,2.62h-.41v-2h.41Z"/><path class="cls-9" d="M136.24,177.48a.95.95,0,1,1,.94,1A1,1,0,0,1,136.24,177.48Zm1.45,0c0-.43-.2-.71-.51-.71s-.51.28-.51.71.2.7.51.7S137.7,177.9,137.7,177.48Z"/><path class="cls-9" d="M139.9,178.48h-.41v-2h.34l0,.28h0a1,1,0,0,1,.66-.33c.43,0,.61.28.61.79v1.26h-.42v-1.21c0-.35-.1-.48-.34-.48a.68.68,0,0,0-.49.27Z"/><path class="cls-9" d="M119.29,183.22l.25-.29a1,1,0,0,0,.71.32c.32,0,.51-.15.51-.38s-.18-.32-.43-.43l-.37-.16a.77.77,0,0,1-.55-.7.79.79,0,0,1,.88-.74,1.15,1.15,0,0,1,.81.34l-.22.27a.85.85,0,0,0-.59-.24c-.27,0-.45.13-.45.35s.22.31.43.4l.37.16a.75.75,0,0,1,.55.72.83.83,0,0,1-.94.78A1.33,1.33,0,0,1,119.29,183.22Z"/><path class="cls-9" d="M123.51,181.56h.41l-.73,2.12c-.15.43-.37.72-.79.72a.71.71,0,0,1-.25,0l.08-.33a.54.54,0,0,0,.15,0,.44.44,0,0,0,.42-.37l0-.14-.79-2h.43l.37,1c.06.17.12.38.18.56h0l.16-.56Z"/><path class="cls-9" d="M124.72,183.33l.2-.27a.89.89,0,0,0,.57.23c.24,0,.35-.12.35-.27s-.23-.26-.44-.35-.57-.24-.57-.58.27-.59.71-.59a1.05,1.05,0,0,1,.65.24l-.2.26a.75.75,0,0,0-.45-.17c-.22,0-.32.11-.32.25s.21.24.43.32.59.23.59.61-.27.61-.76.61A1.23,1.23,0,0,1,124.72,183.33Z"/><path class="cls-9" d="M127.4,182.91v-1h-.29v-.31l.31,0,0-.55h.35v.55h.52v.33h-.52v1c0,.24.08.36.29.36a.59.59,0,0,0,.21,0l.08.31a1.28,1.28,0,0,1-.39.07C127.55,183.61,127.4,183.33,127.4,182.91Z"/><path class="cls-9" d="M129.28,182.57a1,1,0,0,1,.91-1.05c.53,0,.81.38.81.95a1.09,1.09,0,0,1,0,.21h-1.3a.6.6,0,0,0,.62.61.85.85,0,0,0,.48-.15l.15.27a1.21,1.21,0,0,1-.68.21A1,1,0,0,1,129.28,182.57Zm1.37-.18c0-.35-.16-.55-.45-.55a.54.54,0,0,0-.51.55Z"/><path class="cls-9" d="M132.54,183.56h-.41v-2h.34l0,.28h0a.87.87,0,0,1,.62-.33.53.53,0,0,1,.55.37.92.92,0,0,1,.65-.37c.42,0,.61.28.61.79v1.26h-.42v-1.21c0-.35-.11-.48-.33-.48a.67.67,0,0,0-.45.27v1.42h-.42v-1.21c0-.35-.11-.48-.33-.48a.67.67,0,0,0-.45.27Z"/><path class="cls-8" d="M164.12,67.31l11.38-4v7.93Z"/></g></g></svg>