<svg xmlns="http://www.w3.org/2000/svg" viewBox="0 0 352.47 333.77"><defs><style>.cls-1{fill:#efefef;}.cls-2{font-size:15px;letter-spacing:0.66em;}.cls-18,.cls-19,.cls-2,.cls-20,.cls-21,.cls-23,.cls-27,.cls-30{fill:#595857;font-family:HiraginoSans-W2-83pv-RKSJ-H, Hiragino Sans;}.cls-3{fill:#22ac39;}.cls-4{fill:#727171;}.cls-5{font-size:20.15px;font-family:HiraKakuStdN-W8-83pv-RKSJ-H, Hiragino Kaku Gothic StdN;letter-spacing:0.28em;}.cls-34,.cls-5{fill:#898989;}.cls-10,.cls-11,.cls-12,.cls-13,.cls-14,.cls-15,.cls-17,.cls-31,.cls-6,.cls-7,.cls-8,.cls-9{fill:none;stroke-miterlimit:10;}.cls-10,.cls-11,.cls-12,.cls-13,.cls-14,.cls-15,.cls-17,.cls-6,.cls-7,.cls-8,.cls-9{stroke:#727171;}.cls-6{stroke-dasharray:2 2 2;}.cls-8{stroke-dasharray:2.05 2.05 2.05 2.05;}.cls-9{stroke-dasharray:2.05 2.05 2.05 2.05 2.05 2.05;}.cls-10{stroke-dasharray:1.97 1.97 1.97 1.97;}.cls-11{stroke-dasharray:1.97 1.97 1.97 1.97 1.97 1.97;}.cls-12{stroke-dasharray:1.88 1.88 1.88 1.88;}.cls-13{stroke-dasharray:1.88 1.88 1.88 1.88 1.88 1.88;}.cls-14{stroke-dasharray:1.56 1.56 1.56 1.56;}.cls-15{stroke-dasharray:1.56 1.56 1.56 1.56 1.56 1.56;}.cls-16{fill:#9fa0a0;}.cls-17,.cls-31{stroke-width:0.5px;}.cls-18,.cls-23,.cls-27,.cls-30{font-size:12px;}.cls-18,.cls-20{letter-spacing:0.24em;}.cls-19{writing-mode:tb;text-orientation:upright;glyph-orientation-vertical:0deg;letter-spacing:0.24em;}.cls-19,.cls-20,.cls-21{font-size:10px;}.cls-21{letter-spacing:0.1em;}.cls-22{letter-spacing:0.35em;}.cls-23{letter-spacing:0.2em;}.cls-24{letter-spacing:0.45em;}.cls-25{letter-spacing:0.45em;}.cls-26{letter-spacing:0.2em;}.cls-27{letter-spacing:0.22em;}.cls-28{letter-spacing:0.47em;}.cls-29{letter-spacing:0.22em;}.cls-30{letter-spacing:0.32em;}.cls-31{stroke:#898989;}.cls-32{fill:#3bae37;}.cls-33{fill:#fff;}</style></defs><title>Asset 2</title><g id="Layer_2" data-name="Layer 2"><g id="レイヤー_1" data-name="レイヤー 1"><rect class="cls-1" x="164.99" y="24.65" width="72.61" height="181.52" rx="5.67" ry="5.67"/><text class="cls-2" transform="translate(167.6 13.2)">導入前</text><path class="cls-3" d="M213.52,177.14h8v2h-8Zm0-8h8v2h-8Zm0-7h8v2h-8Zm-29.31-4.31h5.12l2.69,5.59a9.52,9.52,0,0,1,.56,1.59h0c.11-.36.31-.93.59-1.66l3-5.53h4.69l-5.59,9.25,5.75,9.44h-5l-3.25-6.09a5.36,5.36,0,0,1-.37-1.25h0a10.16,10.16,0,0,1-.44,1.31l-3.25,6h-5l6-9.34Zm29.31-2.69h8v2h-8Zm-4-7v7h2v2h-2v5h2v2h-2v5h2v2h-2v6h2v2h-2v7h15a2,2,0,0,0,2-2v-34a2,2,0,0,0-2-2Zm-3.19-6-28,5.31a1,1,0,0,0-.81,1v37.31a1,1,0,0,0,.81,1l28,5.31a1.13,1.13,0,0,0,.19,0,1,1,0,0,0,.63-.22,1,1,0,0,0,.38-.78v-48a1,1,0,0,0-.37-.78A1,1,0,0,0,206.33,142.17Z"/><path class="cls-4" d="M284.23,51.32a6.24,6.24,0,0,0,4.55-1.93,6.81,6.81,0,0,0,1.84-4.73,6.62,6.62,0,0,0-6.26-6.71h0A6.45,6.45,0,0,0,279.72,40a6.91,6.91,0,0,0-1.94,4.74,6.6,6.6,0,0,0,1.92,4.57A6.36,6.36,0,0,0,284.23,51.32ZM281,41.22a4.72,4.72,0,0,1,3.38-1.54,4.86,4.86,0,0,1,4.54,5,5.08,5.08,0,0,1-1.36,3.53,4.52,4.52,0,0,1-3.31,1.4,4.62,4.62,0,0,1-3.28-1.46,4.87,4.87,0,0,1-1.42-3.37A5.16,5.16,0,0,1,281,41.22Z"/><path class="cls-4" d="M289.44,54.05a42.2,42.2,0,0,0-10.16,0,6.73,6.73,0,0,0-5.9,6.7v6.59a.87.87,0,0,0,1.74,0V60.75a5,5,0,0,1,4.37-5,40.48,40.48,0,0,1,9.75,0,5,5,0,0,1,4.36,5v6.59a.87.87,0,0,0,1.74,0V60.75A6.73,6.73,0,0,0,289.44,54.05Z"/><path class="cls-4" d="M284.23,85A6.24,6.24,0,0,0,288.79,83a6.81,6.81,0,0,0,1.84-4.73,6.62,6.62,0,0,0-6.26-6.71h0a6.45,6.45,0,0,0-4.61,2.08,6.91,6.91,0,0,0-1.94,4.74A6.6,6.6,0,0,0,279.69,83,6.36,6.36,0,0,0,284.23,85ZM281,74.87a4.72,4.72,0,0,1,3.38-1.54,4.86,4.86,0,0,1,4.54,5,5.08,5.08,0,0,1-1.36,3.53,4.52,4.52,0,0,1-3.31,1.4,4.62,4.62,0,0,1-3.28-1.46,4.87,4.87,0,0,1-1.42-3.37A5.16,5.16,0,0,1,281,74.87Z"/><path class="cls-4" d="M289.44,87.7a42.2,42.2,0,0,0-10.16,0,6.73,6.73,0,0,0-5.9,6.7V101a.87.87,0,0,0,1.74,0V94.4a5,5,0,0,1,4.37-5,40.48,40.48,0,0,1,9.75,0,5,5,0,0,1,4.36,5V101a.87.87,0,0,0,1.74,0V94.4A6.73,6.73,0,0,0,289.44,87.7Z"/><path class="cls-4" d="M310.31,67.44a6.24,6.24,0,0,0,4.55-1.93,6.81,6.81,0,0,0,1.84-4.73,6.62,6.62,0,0,0-6.26-6.71h0a6.45,6.45,0,0,0-4.61,2.08,6.91,6.91,0,0,0-1.94,4.74,6.6,6.6,0,0,0,1.92,4.57A6.36,6.36,0,0,0,310.31,67.44ZM307,57.34a4.72,4.72,0,0,1,3.38-1.54,4.86,4.86,0,0,1,4.54,5,5.08,5.08,0,0,1-1.36,3.53,4.52,4.52,0,0,1-3.31,1.4A4.62,4.62,0,0,1,307,64.24a4.87,4.87,0,0,1-1.42-3.37A5.16,5.16,0,0,1,307,57.34Z"/><path class="cls-4" d="M315.51,70.18a42.2,42.2,0,0,0-10.16,0,6.73,6.73,0,0,0-5.9,6.7v6.59a.87.87,0,0,0,1.74,0V76.87a5,5,0,0,1,4.37-5,40.48,40.48,0,0,1,9.75,0,5,5,0,0,1,4.36,5v6.59a.87.87,0,0,0,1.74,0V76.87A6.73,6.73,0,0,0,315.51,70.18Z"/><text class="cls-5" transform="translate(191.6 125.39)">＋</text><path class="cls-4" d="M29,152.2a.45.45,0,0,0-.68-.32c-.68.39-1.4.74-2.1,1.07a14,14,0,0,0-4.52,2.94c-2.08,2.25-2.06,6.2-2.05,9.37,0,.6,0,1.17,0,1.7a.45.45,0,0,0,.44.46h0a.45.45,0,0,0,.45-.44c0-.54,0-1.12,0-1.72,0-3,0-6.76,1.81-8.75a13.13,13.13,0,0,1,4.24-2.73c.52-.25,1.06-.5,1.59-.78l2.19,13.72a.45.45,0,0,0,.9-.14Z"/><path class="cls-4" d="M26.3,142.59a.45.45,0,0,0-.25-.87,1.7,1.7,0,0,0-1.2,1.07,3.32,3.32,0,0,0,.27,3.1,2.16,2.16,0,0,0,1.6.88c1,3.43,3.73,5.53,5.82,5.53,2.38,0,4.94-2.46,5.83-5.54a2.17,2.17,0,0,0,1.5-.87,3.32,3.32,0,0,0,.27-3.1,2,2,0,0,0-1.91-1.17.45.45,0,0,0-.44.47.46.46,0,0,0,.47.44s.81,0,1,.56a2.45,2.45,0,0,1-.14,2.25,1.28,1.28,0,0,1-1.1.52.45.45,0,0,0-.47.35c-.61,2.5-2.78,5.18-5,5.18-1.85,0-4.32-2.13-5.06-5.3a.45.45,0,0,0-.75-.23,1.27,1.27,0,0,1-.88-.51,2.45,2.45,0,0,1-.14-2.25A.78.78,0,0,1,26.3,142.59Z"/><path class="cls-4" d="M27.25,140.62a.45.45,0,0,0,.18,0c1.25-.54,4.9-.75,7.57-.62.36,0,.73-.3,1.09-.95.17.87.24,1,.58,1.09a4.35,4.35,0,0,1,1.15.26.45.45,0,0,0,.38-.83,4.49,4.49,0,0,0-1.13-.29c-.09-.38-.24-1.18-.36-1.86a.45.45,0,0,0-.41-.38.45.45,0,0,0-.47.3A5.94,5.94,0,0,1,35,139c-2.78-.12-6.47.08-7.9.7a.45.45,0,0,0,.18.87Z"/><path class="cls-4" d="M34.51,155.63a.45.45,0,0,0,.32-.78L32.94,153a.46.46,0,0,0-.61,0l-2.07,1.76a.45.45,0,0,0,.59.69L32.61,154l1.58,1.53A.45.45,0,0,0,34.51,155.63Z"/><path class="cls-4" d="M24,150.43a.51.51,0,0,0,.74.3c.64-.39,1.3-.74,2-1.07s.07-1.15-.51-.87-1,.49-1.44.76a13.79,13.79,0,0,1-.65-4.28,20.31,20.31,0,0,1,.65-4.76c.6-2.44,1.55-5.12,3.79-6.51a7.49,7.49,0,0,1,7.6-.19c2.1,1.26,3.2,3.65,3.86,5.91a16.91,16.91,0,0,1,.37,9.21q-.09.32-.19.63c-.47-.27-1-.52-1.45-.76s-1.08.58-.51.87,1.33.68,2,1.07a.51.51,0,0,0,.74-.3,17,17,0,0,0,.25-10.18c-.63-2.5-1.69-5.15-3.78-6.78a8.33,8.33,0,0,0-8.33-.87,7.55,7.55,0,0,0-3.29,2.73,13.78,13.78,0,0,0-1.71,3.87,18.55,18.55,0,0,0-.49,9.95C23.7,149.57,23.84,150,24,150.43Z"/><path class="cls-4" d="M35.92,152.2a.45.45,0,0,1,.68-.32c.68.39,1.4.74,2.1,1.07a14,14,0,0,1,4.52,2.94c2.08,2.25,2.06,6.2,2.05,9.37,0,.6,0,1.17,0,1.7a.45.45,0,0,1-.44.46h0a.45.45,0,0,1-.45-.44c0-.54,0-1.12,0-1.72,0-3,0-6.76-1.81-8.75a13.13,13.13,0,0,0-4.24-2.73c-.52-.25-1.06-.5-1.59-.78L34.52,166.7a.45.45,0,1,1-.9-.14Z"/><path class="cls-4" d="M29,187.94a.45.45,0,0,0-.68-.32c-.68.39-1.4.74-2.1,1.07a14,14,0,0,0-4.52,2.94c-2.08,2.25-2.06,6.2-2.05,9.37,0,.6,0,1.17,0,1.7a.45.45,0,0,0,.44.46h0a.45.45,0,0,0,.45-.44c0-.54,0-1.12,0-1.72,0-3,0-6.76,1.81-8.75a13.13,13.13,0,0,1,4.24-2.73c.52-.25,1.06-.5,1.59-.78l2.19,13.72a.45.45,0,0,0,.9-.14Z"/><path class="cls-4" d="M26.3,178.33a.45.45,0,0,0-.25-.87,1.7,1.7,0,0,0-1.2,1.07,3.32,3.32,0,0,0,.27,3.1,2.16,2.16,0,0,0,1.6.88c1,3.43,3.73,5.53,5.82,5.53,2.38,0,4.94-2.46,5.83-5.54a2.17,2.17,0,0,0,1.5-.87,3.32,3.32,0,0,0,.27-3.1,2,2,0,0,0-1.91-1.17.45.45,0,0,0-.44.47.46.46,0,0,0,.47.44s.81,0,1,.56a2.45,2.45,0,0,1-.14,2.25,1.28,1.28,0,0,1-1.1.52.45.45,0,0,0-.47.35c-.61,2.5-2.78,5.18-5,5.18-1.85,0-4.32-2.13-5.06-5.3a.45.45,0,0,0-.75-.23,1.27,1.27,0,0,1-.88-.51,2.45,2.45,0,0,1-.14-2.25A.78.78,0,0,1,26.3,178.33Z"/><path class="cls-4" d="M27.25,176.36a.45.45,0,0,0,.18,0c1.25-.54,4.9-.75,7.57-.62.36,0,.73-.3,1.09-.95.17.87.24,1,.58,1.09a4.35,4.35,0,0,1,1.15.26.45.45,0,0,0,.38-.83,4.49,4.49,0,0,0-1.13-.29c-.09-.38-.24-1.18-.36-1.86a.45.45,0,0,0-.41-.38.45.45,0,0,0-.47.3,5.94,5.94,0,0,1-.87,1.75c-2.78-.12-6.47.08-7.9.7a.45.45,0,0,0,.18.87Z"/><path class="cls-4" d="M34.51,191.37a.45.45,0,0,0,.32-.78l-1.88-1.82a.46.46,0,0,0-.61,0l-2.07,1.76a.45.45,0,0,0,.59.69l1.75-1.49,1.58,1.53A.45.45,0,0,0,34.51,191.37Z"/><path class="cls-4" d="M24,186.16a.51.51,0,0,0,.74.3c.64-.39,1.3-.74,2-1.07s.07-1.15-.51-.87-1,.49-1.44.76A13.79,13.79,0,0,1,24.1,181a20.31,20.31,0,0,1,.65-4.76c.6-2.44,1.55-5.12,3.79-6.51a7.49,7.49,0,0,1,7.6-.19c2.1,1.26,3.2,3.65,3.86,5.91a16.91,16.91,0,0,1,.37,9.21q-.09.32-.19.63c-.47-.27-1-.52-1.45-.76s-1.08.58-.51.87,1.33.68,2,1.07a.51.51,0,0,0,.74-.3A17,17,0,0,0,41.19,176c-.63-2.5-1.69-5.15-3.78-6.78a8.33,8.33,0,0,0-8.33-.87,7.55,7.55,0,0,0-3.29,2.73,13.78,13.78,0,0,0-1.71,3.87,18.55,18.55,0,0,0-.49,9.95C23.7,185.31,23.84,185.74,24,186.16Z"/><path class="cls-4" d="M35.92,187.94a.45.45,0,0,1,.68-.32c.68.39,1.4.74,2.1,1.07a14,14,0,0,1,4.52,2.94c2.08,2.25,2.06,6.2,2.05,9.37,0,.6,0,1.17,0,1.7a.45.45,0,0,1-.44.46h0a.45.45,0,0,1-.45-.44c0-.54,0-1.12,0-1.72,0-3,0-6.76-1.81-8.75a13.13,13.13,0,0,0-4.24-2.73c-.52-.25-1.06-.5-1.59-.78l-2.19,13.72a.45.45,0,1,1-.9-.14Z"/><path class="cls-4" d="M29,117a.45.45,0,0,0-.68-.32c-.68.39-1.4.74-2.1,1.07a14,14,0,0,0-4.52,2.94c-2.08,2.25-2.06,6.2-2.05,9.37,0,.6,0,1.17,0,1.7a.45.45,0,0,0,.44.46h0a.45.45,0,0,0,.45-.44c0-.54,0-1.12,0-1.72,0-3,0-6.76,1.81-8.75a13.13,13.13,0,0,1,4.24-2.73c.52-.25,1.06-.5,1.59-.78l2.19,13.72a.45.45,0,1,0,.9-.14Z"/><path class="cls-4" d="M26.3,107.39a.45.45,0,0,0-.25-.87,1.7,1.7,0,0,0-1.2,1.07,3.32,3.32,0,0,0,.27,3.1,2.16,2.16,0,0,0,1.6.88c1,3.43,3.73,5.53,5.82,5.53,2.38,0,4.94-2.46,5.83-5.54a2.17,2.17,0,0,0,1.5-.87,3.32,3.32,0,0,0,.27-3.1,2,2,0,0,0-1.91-1.17.45.45,0,0,0-.44.47.46.46,0,0,0,.47.44s.81,0,1,.56a2.45,2.45,0,0,1-.14,2.25,1.28,1.28,0,0,1-1.1.52.45.45,0,0,0-.47.35c-.61,2.5-2.78,5.18-5,5.18-1.85,0-4.32-2.13-5.06-5.3a.45.45,0,0,0-.75-.23,1.27,1.27,0,0,1-.88-.51,2.45,2.45,0,0,1-.14-2.25A.78.78,0,0,1,26.3,107.39Z"/><path class="cls-4" d="M27.25,105.41a.45.45,0,0,0,.18,0c1.25-.54,4.9-.75,7.57-.62.36,0,.73-.3,1.09-.95.17.87.24,1,.58,1.09a4.35,4.35,0,0,1,1.15.26.45.45,0,0,0,.38-.83,4.49,4.49,0,0,0-1.13-.29c-.09-.38-.24-1.18-.36-1.86a.45.45,0,0,0-.41-.38.45.45,0,0,0-.47.3,5.94,5.94,0,0,1-.87,1.75c-2.78-.12-6.47.08-7.9.7a.45.45,0,0,0,.18.87Z"/><path class="cls-4" d="M34.51,120.43a.45.45,0,0,0,.32-.78l-1.88-1.82a.46.46,0,0,0-.61,0l-2.07,1.76a.45.45,0,0,0,.59.69l1.75-1.49,1.58,1.53A.45.45,0,0,0,34.51,120.43Z"/><path class="cls-4" d="M24,115.22a.51.51,0,0,0,.74.3c.64-.39,1.3-.74,2-1.07s.07-1.15-.51-.87-1,.49-1.44.76a13.79,13.79,0,0,1-.65-4.28,20.31,20.31,0,0,1,.65-4.76c.6-2.44,1.55-5.12,3.79-6.51a7.49,7.49,0,0,1,7.6-.19c2.1,1.26,3.2,3.65,3.86,5.91a16.91,16.91,0,0,1,.37,9.21q-.09.32-.19.63c-.47-.27-1-.52-1.45-.76s-1.08.58-.51.87,1.33.68,2,1.07a.51.51,0,0,0,.74-.3A17,17,0,0,0,41.19,105c-.63-2.5-1.69-5.15-3.78-6.78a8.33,8.33,0,0,0-8.33-.87,7.55,7.55,0,0,0-3.29,2.73A13.78,13.78,0,0,0,24.07,104a18.55,18.55,0,0,0-.49,9.95C23.7,114.37,23.84,114.8,24,115.22Z"/><path class="cls-4" d="M35.92,117a.45.45,0,0,1,.68-.32c.68.39,1.4.74,2.1,1.07a14,14,0,0,1,4.52,2.94c2.08,2.25,2.06,6.2,2.05,9.37,0,.6,0,1.17,0,1.7a.45.45,0,0,1-.44.46h0a.45.45,0,0,1-.45-.44c0-.54,0-1.12,0-1.72,0-3,0-6.76-1.81-8.75a13.13,13.13,0,0,0-4.24-2.73c-.52-.25-1.06-.5-1.59-.78L34.52,131.5a.45.45,0,1,1-.9-.14Z"/><line class="cls-6" x1="107.87" y1="67.24" x2="176.16" y2="67.24"/><line class="cls-6" x1="225.5" y1="67.24" x2="275.28" y2="67.24"/><line class="cls-6" x1="112.63" y1="78.83" x2="176.16" y2="78.83"/><line class="cls-6" x1="225.5" y1="78.83" x2="278.28" y2="78.83"/><line class="cls-7" x1="94.39" y1="105.19" x2="94.39" y2="106.19"/><line class="cls-8" x1="94.39" y1="108.25" x2="94.39" y2="115.44"/><line class="cls-9" x1="94.39" y1="116.46" x2="94.39" y2="164.72"/><polyline class="cls-7" points="94.39 165.74 94.39 166.74 95.39 166.74"/><line class="cls-10" x1="97.35" y1="166.74" x2="104.24" y2="166.74"/><line class="cls-11" x1="105.23" y1="166.74" x2="175.11" y2="166.74"/><line class="cls-7" x1="176.09" y1="166.74" x2="177.09" y2="166.74"/><line class="cls-7" x1="226.43" y1="166.74" x2="227.43" y2="166.74"/><line class="cls-12" x1="229.31" y1="166.74" x2="235.91" y2="166.74"/><line class="cls-13" x1="236.85" y1="166.74" x2="292.44" y2="166.74"/><polyline class="cls-7" points="293.38 166.74 294.38 166.74 294.38 165.74"/><line class="cls-14" x1="294.38" y1="164.18" x2="294.38" y2="158.71"/><line class="cls-15" x1="294.38" y1="157.93" x2="294.38" y2="149.33"/><line class="cls-7" x1="294.38" y1="148.54" x2="294.38" y2="147.54"/><path class="cls-16" d="M133.84,170.8v-7.93l11.38,4Z"/><path class="cls-16" d="M133.84,71.16V63.22l11.38,4Z"/><path class="cls-16" d="M252.17,67.19l11.38-4v7.93Z"/><path class="cls-16" d="M133.84,82.84V74.91l11.38,4Z"/><path class="cls-16" d="M252.17,78.88l11.38-4v7.93Z"/><path class="cls-16" d="M298,149.78h-7.93l4-11.38Z"/><rect class="cls-17" x="76.62" y="245.68" width="249.49" height="20.87"/><rect class="cls-17" x="76.62" y="279.04" width="249.49" height="20.87"/><text class="cls-18" transform="translate(74.31 101.02)">従業員</text><text class="cls-19" transform="translate(58.37 102.68)">アルバイトを雇用</text><text class="cls-20" transform="translate(93.17 184.29)">報酬計算</text><text class="cls-20" transform="translate(260.1 184.29)">支払い</text><text class="cls-20" transform="translate(261.09 31.82)">業務委託講師</text><text class="cls-21" transform="translate(253.47 117.36)">業務報告・経費申請<tspan x="0" y="14">煩雑</tspan><tspan class="cls-22" x="22" y="14">な</tspan><tspan x="35.5" y="14">LIN</tspan><tspan class="cls-22" x="54.35" y="14">E</tspan><tspan x="64.17" y="14">操作…</tspan></text><text class="cls-23" transform="translate(97.97 260.79)">頻繁<tspan class="cls-24" x="28.8" y="0">な</tspan><tspan x="46.2" y="0">LIN</tspan><tspan class="cls-25" x="72.42" y="0">E</tspan><tspan class="cls-26" x="85.4" y="0">のやりとりが負担</tspan></text><text class="cls-27" transform="translate(97.29 294.16)">EXCE<tspan class="cls-28" x="43.07" y="0">L</tspan><tspan class="cls-29" x="55.8" y="0">を使った手作業が負担</tspan></text><rect class="cls-17" x="76.62" y="312.65" width="249.49" height="20.87"/><text class="cls-30" transform="translate(96.03 327.77)">マンパワーに頼るしかない？</text><line class="cls-31" x1="202.4" y1="205.8" x2="202.4" y2="246.13"/><rect class="cls-32" x="176.01" y="43.37" width="50.58" height="50.58" rx="9.13" ry="9.13"/><path class="cls-33" d="M212.61,65.75a1,1,0,0,1,0,1.93h-2.69v1.73h2.69a1,1,0,0,1,0,1.93H209a1,1,0,0,1-1-1V66.72h0V63.06a1,1,0,0,1,1-1h3.66a1,1,0,0,1,0,1.93h-2.69v1.73h2.69Zm-5.92,4.63a1,1,0,0,1-.66.92,1,1,0,0,1-.31,0A1,1,0,0,1,205,71l-3.75-5.11v4.53a1,1,0,0,1-1.94,0V63.06a1,1,0,0,1,.66-.92,1,1,0,0,1,.3,0,1,1,0,0,1,.77.39l3.75,5.11V63.06a1,1,0,1,1,1.93,0Zm-8.82,0a1,1,0,1,1-1.93,0V63.06a1,1,0,1,1,1.93,0Zm-3.78,1h-3.66a1,1,0,0,1-1-1V63.06a1,1,0,1,1,1.93,0v6.35h2.7a1,1,0,0,1,0,1.93Zm25.63-4.9c0-8.24-8.26-14.95-18.41-14.95s-18.42,6.7-18.42,14.95c0,7.39,6.55,13.57,15.4,14.74.6.13,1.42.4,1.63.91a3.8,3.8,0,0,1,.06,1.66s-.22,1.3-.26,1.58c-.08.47-.37,1.82,1.59,1s10.61-6.24,14.47-10.69h0C218.45,72.71,219.72,69.74,219.72,66.44Z"/><line class="cls-6" x1="20.37" y1="126.03" x2="2.26" y2="126.03"/><line class="cls-6" x1="20.37" y1="162.25" x2="2.26" y2="162.25"/><path class="cls-6" d="M19.31,194.84H1.21s1.36-129.76,0-128.4H19.31"/><path class="cls-16" d="M39.82,52.76a1.52,1.52,0,1,0-1.45-1.52A1.48,1.48,0,0,0,39.82,52.76Zm-10.61,0a1.52,1.52,0,1,0-1.45-1.52A1.48,1.48,0,0,0,29.21,52.76Zm-7,2,.14.08c0,1.35-.4,3.95-2.54,3.95,0,0,3.21,2.65,6.86,1.46a15.63,15.63,0,0,0,1.54,1.57,10.27,10.27,0,0,0,6.31,2.83,9.88,9.88,0,0,0,6.7-2.85,13.61,13.61,0,0,0,1.37-1.51c3.58,1.07,6.71-1.51,6.71-1.51-2.16,0-2.51-2.64-2.54-4l.07,0a5.2,5.2,0,0,0,2.39-4c0-.15,0-.29,0-.44a3.57,3.57,0,0,0-.84-2.39,2.68,2.68,0,0,0-2-.94A2.4,2.4,0,0,0,46,47a9.46,9.46,0,0,0-2.63-8.84c-2.24-2.16-4-2.28-5.16-1.85-2.28-1.6-6.11-3-10.76.56-4.25,3.24-4.49,8.72-4.47,10.12l-.3,0a2.68,2.68,0,0,0-2,.94,3.57,3.57,0,0,0-.84,2.39c0,.14,0,.29,0,.44A5.2,5.2,0,0,0,22.21,54.72Zm1.25-7.63v0h0Zm-.82,1.42a1.2,1.2,0,0,1,.56.17c0,.18,0,.38,0,.58,0,.39,0,.81,0,1.2a.73.73,0,0,0,.78.69.75.75,0,0,0,.66-.82c0-.31,0-.7,0-1.06s0-.63,0-.88l.07-.32a10.32,10.32,0,0,0,2,.31,11,11,0,0,0,10.11-5.91,7.34,7.34,0,0,0,5.93,5.43,6.08,6.08,0,0,0,1.5,0c0,.17.08.34.12.51s0,.55,0,.88,0,.75,0,1.06a.75.75,0,0,0,.66.82.73.73,0,0,0,.78-.69c0-.38,0-.8,0-1.2,0-.21,0-.4,0-.58a1.2,1.2,0,0,1,.56-.17c.66,0,1.38.6,1.4,1.81v.28a3.63,3.63,0,0,1-1.57,2.73,4.87,4.87,0,0,1-1.65.76l-.19,0a.72.72,0,0,0-.32.19.79.79,0,0,0-.23.55l0,.08a13.9,13.9,0,0,1-3.57,5.69,8.47,8.47,0,0,1-5.74,2.47,8.94,8.94,0,0,1-5.39-2.48,13.67,13.67,0,0,1-3.92-5.68l0-.07A.79.79,0,0,0,25,54.3l-.23-.16-.19-.05h-.08l-.09,0L24.06,54A5,5,0,0,1,23,53.43a3.65,3.65,0,0,1-1.72-2.83v-.28C21.26,49.09,22,48.5,22.64,48.5Zm25,19.13a12.58,12.58,0,0,0-7.12-3.77l-1.71,4.83-.52.19a10.56,10.56,0,0,1-3.41.58,9.68,9.68,0,0,1-4.57-1.17L28.82,63.8a12.46,12.46,0,0,0-7.45,3.83,13.77,13.77,0,0,0-3.75,9.52v8.58a.78.78,0,0,0,.21.54.71.71,0,0,0,.51.22H50.69a.71.71,0,0,0,.51-.22.78.78,0,0,0,.21-.54V77.15A13.76,13.76,0,0,0,47.66,67.63ZM34.55,80.76l-3.71-11a10.63,10.63,0,0,0,4.06.81,11.49,11.49,0,0,0,3.44-.54Z"/><path class="cls-34" d="M66.89,49a1.69,1.69,0,1,0-1.61-1.69A1.65,1.65,0,0,0,66.89,49ZM55.09,49a1.69,1.69,0,1,0-1.61-1.69A1.65,1.65,0,0,0,55.09,49Zm-7.78,2.18.15.09c0,1.5-.45,4.39-2.82,4.39,0,0,3.57,2.94,7.62,1.62A17.37,17.37,0,0,0,54,59a11.41,11.41,0,0,0,7,3.15A11,11,0,0,0,68.43,59,15.12,15.12,0,0,0,70,57.33c4,1.19,7.45-1.67,7.45-1.67-2.4,0-2.78-2.94-2.83-4.43l.08,0a5.78,5.78,0,0,0,2.66-4.41c0-.16,0-.33,0-.48a4,4,0,0,0-.94-2.65,3,3,0,0,0-2.22-1,2.67,2.67,0,0,0-.47,0,10.51,10.51,0,0,0-2.92-9.82c-2.49-2.4-4.42-2.53-5.73-2.06-2.53-1.78-6.79-3.32-12,.62-4.73,3.6-5,9.69-5,11.24l-.34,0a3,3,0,0,0-2.22,1,4,4,0,0,0-.94,2.65c0,.16,0,.32,0,.48A5.78,5.78,0,0,0,47.32,51.19Zm1.39-8.48v0h0Zm-.91,1.57a1.34,1.34,0,0,1,.62.19c0,.2,0,.42,0,.65,0,.44,0,.9,0,1.33a.82.82,0,0,0,.87.77.83.83,0,0,0,.73-.92c0-.35,0-.77,0-1.18s0-.7,0-1l.08-.35a11.46,11.46,0,0,0,2.22.35,12.2,12.2,0,0,0,11.23-6.56,8.15,8.15,0,0,0,6.59,6,6.75,6.75,0,0,0,1.66,0c0,.19.09.38.13.57s0,.61,0,1,0,.83,0,1.18a.83.83,0,0,0,.73.92.82.82,0,0,0,.87-.77c0-.43,0-.89,0-1.33,0-.23,0-.45,0-.65a1.34,1.34,0,0,1,.62-.19c.74,0,1.53.66,1.55,2l0,.32a4,4,0,0,1-1.74,3,5.41,5.41,0,0,1-1.84.84l-.21,0a.8.8,0,0,0-.36.21.88.88,0,0,0-.25.61l0,.08a15.44,15.44,0,0,1-4,6.32A9.41,9.41,0,0,1,61,60.48a9.93,9.93,0,0,1-6-2.76,15.18,15.18,0,0,1-4.35-6.32l0-.07a.88.88,0,0,0-.25-.61l-.25-.17-.22-.06h-.09l-.1,0-.39-.12a5.56,5.56,0,0,1-1.21-.59,4.06,4.06,0,0,1-1.91-3.15l0-.32C46.26,44.94,47.06,44.28,47.8,44.28ZM75.6,65.53a14,14,0,0,0-7.91-4.19l-1.9,5.37-.57.22a11.74,11.74,0,0,1-3.79.64,10.75,10.75,0,0,1-5.07-1.3l-1.68-5a13.84,13.84,0,0,0-8.28,4.26,15.3,15.3,0,0,0-4.17,10.58v9.53a.87.87,0,0,0,.24.6.79.79,0,0,0,.57.25H79a.79.79,0,0,0,.57-.25.87.87,0,0,0,.24-.6V76.11A15.29,15.29,0,0,0,75.6,65.53ZM61,80.12,56.91,67.93a11.81,11.81,0,0,0,4.51.9,12.77,12.77,0,0,0,3.82-.6Z"/><path class="cls-4" d="M97.72,52.41a.8.8,0,0,1-.4-.11,6.37,6.37,0,0,0-6.78,0,.8.8,0,0,1-.94-1.3,8,8,0,0,1,8.51,0,.8.8,0,0,1-.4,1.5Z"/><path class="cls-4" d="M100.25,44.84A1.88,1.88,0,1,0,98.46,43,1.83,1.83,0,0,0,100.25,44.84Zm-13.1,0A1.88,1.88,0,1,0,85.36,43,1.83,1.83,0,0,0,87.14,44.84ZM78.5,47.26l.17.1c-.05,1.67-.49,4.87-3.14,4.87,0,0,4,3.27,8.46,1.8A19.3,19.3,0,0,0,85.9,56c2.44,2.11,5.22,3.48,7.8,3.5A12.19,12.19,0,0,0,102,56a16.8,16.8,0,0,0,1.69-1.86c4.42,1.33,8.28-1.86,8.28-1.86-2.67,0-3.09-3.26-3.14-4.92l.09-.05a6.42,6.42,0,0,0,3-4.9c0-.18,0-.36,0-.54a4.41,4.41,0,0,0-1-2.95,3.3,3.3,0,0,0-2.47-1.16,3,3,0,0,0-.52,0,11.68,11.68,0,0,0-3.25-10.91c-2.77-2.66-4.91-2.81-6.37-2.28-2.81-2-7.54-3.69-13.29.69-5.25,4-5.54,10.77-5.52,12.49l-.37,0a3.3,3.3,0,0,0-2.47,1.16,4.41,4.41,0,0,0-1,2.95c0,.18,0,.36,0,.54A6.42,6.42,0,0,0,78.5,47.26ZM80,37.84v0l-.05,0Zm-1,1.75a1.48,1.48,0,0,1,.69.21c0,.22,0,.47,0,.72,0,.49,0,1,.05,1.48a.91.91,0,0,0,1,.85.93.93,0,0,0,.81-1c0-.39,0-.86,0-1.31s0-.78,0-1.09l.09-.39a12.74,12.74,0,0,0,2.47.39,13.55,13.55,0,0,0,12.48-7.29c1.1,3.58,3.84,6.28,7.32,6.7a7.51,7.51,0,0,0,1.85,0c0,.21.1.42.15.63s0,.68,0,1.09,0,.93,0,1.31a.93.93,0,0,0,.81,1,.91.91,0,0,0,1-.85c0-.47.05-1,.05-1.48,0-.25,0-.5,0-.72a1.48,1.48,0,0,1,.69-.21c.82,0,1.7.74,1.72,2.23l0,.35a4.48,4.48,0,0,1-1.93,3.37,6,6,0,0,1-2,.93l-.24,0a.88.88,0,0,0-.4.23,1,1,0,0,0-.28.68l0,.09a17.16,17.16,0,0,1-4.41,7,10.46,10.46,0,0,1-7.08,3c-1.94,0-4.46-1.14-6.66-3.06a16.87,16.87,0,0,1-4.83-7l0-.08a1,1,0,0,0-.28-.68l-.28-.19-.24-.07h-.1l-.11,0-.43-.13a6.18,6.18,0,0,1-1.35-.66,4.51,4.51,0,0,1-2.12-3.5l0-.35C77.33,40.32,78.22,39.6,79,39.59Zm30.89,23.62a15.53,15.53,0,0,0-8.79-4.66l-2.11,6-.64.24a13,13,0,0,1-4.21.71A12,12,0,0,1,88.54,64l-1.87-5.54a15.38,15.38,0,0,0-9.2,4.73A17,17,0,0,0,72.83,75V85.55a1,1,0,0,0,.26.66.88.88,0,0,0,.63.27h39.94a.88.88,0,0,0,.63-.27,1,1,0,0,0,.26-.66V75A17,17,0,0,0,109.93,63.21ZM93.75,79.41,89.17,65.87a13.12,13.12,0,0,0,5,1,14.19,14.19,0,0,0,4.24-.67Z"/></g></g></svg>