<svg id="Layer_1" data-name="Layer 1" xmlns="http://www.w3.org/2000/svg" xmlns:xlink="http://www.w3.org/1999/xlink" viewBox="0 0 500.79 415.27"><defs><style>.cls-1,.cls-7{fill:none;}.cls-2{clip-path:url(#clip-path);}.cls-3{fill:#fff;}.cls-4{fill:#ea5c67;}.cls-5{fill:#595857;}.cls-6{fill:#dedfdf;}.cls-7{stroke:#595857;stroke-linecap:round;stroke-linejoin:round;stroke-width:3.35px;}</style><clipPath id="clip-path" transform="translate(-83.28 -144.77)"><rect class="cls-1" width="612.28" height="612.28"/></clipPath></defs><title>problem</title><g class="cls-2"><path class="cls-3" d="M571.9,330.79l10.5,66.84c-31,8-59.51,15-90,10.59l-8.65-67.12c45.88,1.15,63.94-5.77,88.11-10.31" transform="translate(-83.28 -144.77)"/><path class="cls-4" d="M522,214.16,565,266.44c-22.67,22.6-43.68,43.12-72.17,54.74l-41.49-53.47c40.13-22.27,52.19-37.39,70.72-53.55" transform="translate(-83.28 -144.77)"/><path class="cls-3" d="M395.69,442.31l0-.29c14.35-2,26.76-4.76,29.12-7.71,4.13-5.15,9-64.34,9.56-89.51l1.17,0s25.6,2.14,30.93,24.54c6.43,27-4.26,10.13-21.33,98.66l-.19.79,36,8.53L395.81,457.8l.22-1c-2.28-13.07-1-14.52-.34-14.52" transform="translate(-83.28 -144.77)"/><polygon class="cls-4" points="378.88 346.61 378.06 365.8 340.19 359.88 378.88 346.61"/><polygon class="cls-4" points="378.88 346.61 339.93 359.84 265.28 348.16 169.48 374.08 150.01 370.68 270.62 333.73 378.88 346.61"/><polygon class="cls-4" points="378.06 365.8 254.38 413.6 254.38 413.55 378.06 365.8"/><polygon class="cls-4" points="378.06 365.8 254.38 413.55 255.44 388.93 340.19 359.88 378.06 365.8"/><path class="cls-4" d="M341.51,423.82l-.28.22c-4-4.31-10.86-4.31-10.86-4.31l-.58-.05.11-1.38q.9-4.15,2-8.21l.8.21,3.57-3.33,49.63-46.4-7.2-19.74,20.53-5.33,1.45-27.6c9.79,6.31,31.68,20.88,33.29,26.1.38,1.23.48,5.16.36,10.8-.52,25.17-5.43,84.36-9.56,89.51-2.36,2.95-14.77,5.7-29.12,7.71-16.38,2.3-35.27,3.65-44.59,3.27-.33,0-.64-1.27-1.19-3.3-1.12-4.19-3.22-11.67-8.36-18.17" transform="translate(-83.28 -144.77)"/><path class="cls-4" d="M306.11,233.14c-.21.66-.41,1.31-.61,2,0,0-20.67-37.19,15.07-71.87,8.39-7.52,20.78-17.28,43.59-16.77,1.36,0,2.77.08,4.22.14,23,1.08,56.63,8.33,63.65,66.77.8,12.26,0,24-6.4,49.6-7.56,30.27,6.4,32.26,6.4,32.26s-22.23,14.74-42.18-4l-2.34-.48c6.26-6.66,9.87-14.17,13.95-18.61a11.79,11.79,0,0,1,5.07-3.55,7.28,7.28,0,0,0,1.54-.71,13.61,13.61,0,0,0,2.84-2.33l.27-.29a24.26,24.26,0,0,0,2.18-2.69,41.11,41.11,0,0,0,2.44-3.82c.3-.53.58-1.07.85-1.63A34.61,34.61,0,0,0,419.71,246h0a.13.13,0,0,0,0-.06c.54-5.12-.08-10-2-12.93-2.4-3.69-6.86-4.32-13.68,1.45-.48.4-1,.83-1.47,1.3l-.59.61c-1.82-.37-3.59-.77-5.33-1.2q-4.87-1.2-9.33-2.71a110.75,110.75,0,0,1-12.46-5,102,102,0,0,1-14.26-8.22A98.44,98.44,0,0,1,347,207.91a99.52,99.52,0,0,1-10.32-12.12l0,0a118.07,118.07,0,0,1-6.42-10s0,0,0,0c-1-1.78-1.62-2.8-1.88-2.8l-.76,1.42c-3.12,6-15.28,29.65-21.43,48.83" transform="translate(-83.28 -144.77)"/><polygon class="cls-4" points="340.19 359.88 255.44 388.93 254.38 413.55 254.24 413.6 151.35 378.98 159.71 376.72 159.68 377.51 253.95 404.89 254.64 388.9 254.45 388.87 339.93 359.84 340.19 359.88"/><polygon class="cls-4" points="339.93 359.84 254.45 388.87 244.83 387.22 169.48 374.08 265.28 348.16 339.93 359.84"/><path class="cls-3" d="M311,268.13l-.6-2.58A103.82,103.82,0,0,1,309,251.8q-.13-3.12-.11-6.46a16.59,16.59,0,0,0-.13-2,54,54,0,0,0-2.6-10.15c6.15-19.18,18.31-42.85,21.43-48.83l.76-1.42c.26,0,.86,1,1.88,2.8,0,0,0,0,0,0a118.06,118.06,0,0,0,6.42,10l0,0A99.52,99.52,0,0,0,347,207.91a98.5,98.5,0,0,0,13.63,11.34,102,102,0,0,0,14.26,8.22,110.67,110.67,0,0,0,12.46,5q4.45,1.5,9.33,2.71c1.74.43,3.51.83,5.33,1.2l.59-.61c.5-.47,1-.9,1.47-1.3l2.77-2,8-1.44,2.93,2c1.92,2.93,2.54,7.81,2,12.93a.13.13,0,0,1,0,.06h0l-1.37,6.27-1.69,4.86c-.27.56-.55,1.1-.85,1.63a41.31,41.31,0,0,1-2.44,3.82l-2.18,2.69-.27.29-2.84,2.33a7.32,7.32,0,0,1-1.54.71,11.78,11.78,0,0,0-5.07,3.55l-3.07,1.63L390,286.89l-2.54,3.88.09,0c-7.67,8.17-19.34,15.07-40.76,13.47a39.71,39.71,0,0,1-9.8-2,34.18,34.18,0,0,1-10.85-6c-5.26-4.3-9.74-10.56-12.81-19.3l-1.36-4.76Zm98.29-8a2.56,2.56,0,1,0-2.56,2.64,2.6,2.6,0,0,0,2.56-2.64m-40.42-17.75c0-4.31-2-7.81-4.43-7.81-1.34,0-2.56,1.07-3.37,2.75a12,12,0,0,0-1.06,5.06c0,4.31,2,7.81,4.43,7.81s4.43-3.5,4.43-7.81m-41.86,0c0-4.31-1.81-7.81-4-7.81-1.22,0-2.33,1.07-3.07,2.75a13.05,13.05,0,0,0-1,5.06c0,4.31,1.82,7.81,4,7.81s4-3.5,4-7.81" transform="translate(-83.28 -144.77)"/><path class="cls-3" d="M418.34,252.3l1.37-6.27a34.61,34.61,0,0,1-3.06,11.13Z" transform="translate(-83.28 -144.77)"/><path class="cls-4" d="M417.72,233l-2.93-2-8,1.44-2.77,2c6.82-5.77,11.28-5.14,13.68-1.45" transform="translate(-83.28 -144.77)"/><path class="cls-3" d="M411.18,265.3l2.18-2.69a24.39,24.39,0,0,1-2.18,2.69" transform="translate(-83.28 -144.77)"/><path class="cls-3" d="M408.07,267.92l2.84-2.33a13.66,13.66,0,0,1-2.84,2.33" transform="translate(-83.28 -144.77)"/><path class="cls-3" d="M406.69,257.46a2.65,2.65,0,1,1-2.56,2.65,2.61,2.61,0,0,1,2.56-2.65" transform="translate(-83.28 -144.77)"/><path class="cls-3" d="M398.39,273.81l3.07-1.63c-4.08,4.44-7.69,11.95-13.95,18.61l-.09,0,2.54-3.88Z" transform="translate(-83.28 -144.77)"/><path class="cls-3" d="M400.7,307.5l0,.4-.17-.11Z" transform="translate(-83.28 -144.77)"/><path class="cls-4" d="M400.68,307.9l-1.45,27.6-20.53,5.33,7.2,19.74L336.27,407l-3.57,3.33-.8-.21c15.93-59.7,58.89-102.53,61.66-105.24l2.44.08s1.75,1.09,4.51,2.86l.17.11" transform="translate(-83.28 -144.77)"/><path class="cls-4" d="M396,456.83l-.22,1-57.14-13.12,0-.24c4.49-.45,8.6-1.18,11.22-2.45.55,2,.86,3.29,1.19,3.3,9.32.38,28.21-1,44.59-3.27l0,.29c-.67,0-1.94,1.45.34,14.52" transform="translate(-83.28 -144.77)"/><path class="cls-3" d="M389.63,292.32s8.1,10.09,5.92,11.33l-1.85,1.07s0,0,0,0c-9.68,5.61-45.48,26.59-45.48,26.59-.07-5.57,2.78-17.35.87-21.07-.66-1.26-1.87-1.59-3.94-.4-4.62,2.65-15.19,21.47-15.19,21.47a25.8,25.8,0,0,1,.8-6.86c.61-2.76,1.48-5.79,2.38-8.69,1.64-5.31,3.36-10.19,3.66-12.14l.19-1.34a39.71,39.71,0,0,0,9.8,1.95c21.42,1.6,33.09-5.3,40.76-13.47l2.34.48Z" transform="translate(-83.28 -144.77)"/><path class="cls-3" d="M393.66,304.75l-.1.1c-2.77,2.71-45.73,45.54-61.66,105.24q-1.1,4.05-2,8.21l-.11,1.38c-1.7-.13-6.82-.55-11.51-.87a187.78,187.78,0,0,1,3.22-50.51c4.39-21.62,25.92-57.15,25.92-57.15l1.63-.88c1.91,3.72-.94,15.5-.87,21.07,0,0,35.8-21,45.48-26.59" transform="translate(-83.28 -144.77)"/><path class="cls-5" d="M364.4,234.55c2.45,0,4.43,3.5,4.43,7.81s-2,7.81-4.43,7.81-4.43-3.5-4.43-7.81A12,12,0,0,1,361,237.3c.81-1.68,2-2.75,3.37-2.75" transform="translate(-83.28 -144.77)"/><path class="cls-3" d="M349.05,310.27l-1.63.88s-21.53,35.53-25.92,57.15a187.83,187.83,0,0,0-3.22,50.51c-2.61-.17-5.09-.32-6.76-.38a14,14,0,0,0-2,0c-1,.16-3.27,1.56-5.33,3l-.31-.75q-.06-4.16.05-8.13c1.49-56.87,26-88.27,26-88.27l.82.18a25.8,25.8,0,0,0-.8,6.86s10.57-18.82,15.19-21.47c2.07-1.19,3.28-.86,3.94.4" transform="translate(-83.28 -144.77)"/><path class="cls-3" d="M279.91,440.79a7.3,7.3,0,0,1-2.22.53c-4.41,0,.8-5.54,2.6-6.25.48-.19,2.16-1.07,4.45-2.3l7.7-4.15c2.78-1.5,5.6-3,8-4.27.7-.62,2.19-1.77,3.8-2.9,2.06-1.44,4.32-2.84,5.33-3a13.92,13.92,0,0,1,2,0c1.67.06,4.15.21,6.76.38,4.69.32,9.81.74,11.51.87l.58.05s6.82,0,10.86,4.31l.28-.22c5.14,6.5,7.24,14,8.36,18.17-2.62,1.27-6.73,2-11.22,2.45-9.23.91-20.1.66-23.06,1.57-2.73.84-15.87,5.83-20.88,5.69s2.53-5.4,2.53-5.4l-.07-.15a50.62,50.62,0,0,1-5.46,2.28c-10.22,3.55-9.78-1.17-6.51-3,1.86-1,5.22-3.21,5.22-3.21l0-.09a38.88,38.88,0,0,1-8,2.24c-9.62,1.42-2.5-3.6-2.5-3.6" transform="translate(-83.28 -144.77)"/><polygon class="cls-3" points="254.64 388.9 253.95 404.89 159.68 377.51 159.71 376.72 168.86 374.24 244.83 387.22 254.38 388.89 254.45 388.87 254.64 388.9"/><polygon class="cls-4" points="254.45 388.87 254.38 388.89 244.83 387.22 254.45 388.87"/><path class="cls-4" d="M331.63,315.67l1.47.12c-.9,2.9-1.77,5.93-2.38,8.69l-.82-.18s-24.46,31.4-26,88.27h-.18c-5.65-28.26-5.45-45.47-4.84-53.14,1-2.56,2.16-4.89,3.22-6.94l10.42-8.72-3.87-6.67,18-19.12c2.22-1.07,4-1.85,5-2.31" transform="translate(-83.28 -144.77)"/><polygon class="cls-4" points="244.83 387.22 168.86 374.24 169.48 374.08 244.83 387.22"/><path class="cls-4" d="M302.15,352.49l-2.65,2.21a42.38,42.38,0,0,0-.57,4.73c-3.75,9.1-6.82,21-4.67,33.18,0,0-3,30.64-2.84,34.28l1,1.73-7.7,4.15-.16-.51-27-6.2,23-12.25,14.52-70.65c4.15-11,22.1-20.63,31.57-25.18l-18,19.12,3.87,6.67Z" transform="translate(-83.28 -144.77)"/><path class="cls-4" d="M326.1,296.32l-.2.25c-8,9.86-40.53-.54-28.27-1.07,11.28-.49,13.1-23.31,13.31-27a65.91,65.91,0,0,0,2.35,8.49c3.07,8.74,7.55,15,12.81,19.3" transform="translate(-83.28 -144.77)"/><path class="cls-5" d="M322.94,234.55c2.22,0,4,3.5,4,7.81s-1.81,7.81-4,7.81-4-3.5-4-7.81a13,13,0,0,1,1-5.06c.74-1.68,1.85-2.75,3.07-2.75" transform="translate(-83.28 -144.77)"/><path class="cls-4" d="M311.93,272.26l1.36,4.76a65.74,65.74,0,0,1-2.35-8.49c0-.18,0-.32,0-.4Z" transform="translate(-83.28 -144.77)"/><path class="cls-4" d="M310.36,265.55l.6,2.58c0,.08,0,.22,0,.4-.21-1-.4-2-.58-3" transform="translate(-83.28 -144.77)"/><polygon class="cls-6" points="222.72 336.23 222.3 340.85 148.26 359.61 142.21 344.61 143.07 346.71 169.3 340.33 135.53 328.06 126.35 305.32 126.48 305.27 222.72 336.23"/><path class="cls-4" d="M303.9,420.7l.31.75c-1.61,1.13-3.1,2.28-3.8,2.9-2.37,1.25-5.19,2.77-8,4.27l-1-1.73c-.2-3.64,2.84-34.28,2.84-34.28-2.15-12.15.92-24.08,4.67-33.18-.61,7.67-.81,24.88,4.84,53.14H304q-.11,4,0,8.13" transform="translate(-83.28 -144.77)"/><path class="cls-3" d="M299.5,354.7l2.65-2.21c-1.06,2.05-2.17,4.38-3.22,6.94a42.37,42.37,0,0,1,.57-4.73" transform="translate(-83.28 -144.77)"/><path class="cls-3" d="M290.65,288.91l-49.49,49.36c-1.17-.67-2.32-1.35-3.46-2.06l3.36-10c-8.56-1.43-16.11-3-22.87-4.55C202.47,307.86,189.46,291,175.78,273l50.79-48c16.49,18.92,26.58,35.94,64.08,63.89" transform="translate(-83.28 -144.77)"/><path class="cls-3" d="M270.83,226.11c6.37-.62,14.07,7.15,20.21,6.43-5.78.5-12,9.1-18.59,10.2-6.32,1.07-11.91-2.59-12.36-7.18s4.36-8.82,10.74-9.45" transform="translate(-83.28 -144.77)"/><path class="cls-4" d="M290.42,218.63c0,.05,0,.1,0,.15v-.15Z" transform="translate(-83.28 -144.77)"/><path class="cls-3" d="M280.39,208.76c4.57,2.86,5.7,12,10.16,14.68-4.1-2.64-12.69-.12-17.64-2.77-4.76-2.54-6.6-7.86-4.54-11.15s7.45-3.63,12-.76" transform="translate(-83.28 -144.77)"/><polygon class="cls-5" points="169.3 340.33 143.07 346.71 142.21 344.61 135.53 328.06 169.3 340.33"/><polygon class="cls-3" points="168.86 374.24 159.71 376.72 159.89 372.71 168.86 374.24"/><path class="cls-3" d="M241.06,326.25l-3.36,10a140.09,140.09,0,0,1-19.51-14.51c6.76,1.6,14.31,3.12,22.87,4.55" transform="translate(-83.28 -144.77)"/><path class="cls-4" d="M237.7,336.21l-19,56.36c-31.39-1.4-58.51-14-87.92-28.1l24.13-65.67c19,7.55,33.54,15.91,63.26,22.9a140.09,140.09,0,0,0,19.51,14.51" transform="translate(-83.28 -144.77)"/><path class="cls-6" d="M209.63,450.09l9.18,22.74-.15-.05,6.83,16.6,6.05,15L118.49,466.45,86.33,383.66s-4.69-10.22,3.24-9.74l96.17,27a12.28,12.28,0,0,1,7.73,7.76l1.16,3L209.76,450Zm-58.84-5.8c3.47.21,5.6-3.22,4.77-7.66s-4.31-8.22-7.78-8.42-5.6,3.22-4.77,7.66,4.32,8.22,7.78,8.42" transform="translate(-83.28 -144.77)"/><polygon class="cls-5" points="135.53 328.06 142.21 344.61 135.38 328.01 135.53 328.06"/><path class="cls-3" d="M155.56,436.63c.83,4.44-1.3,7.87-4.77,7.66s-6.94-4-7.78-8.42,1.31-7.87,4.77-7.66,7,4,7.78,8.42" transform="translate(-83.28 -144.77)"/><polyline class="cls-7" points="255.39 299.91 312.53 313.03 397.62 332.58"/><polyline class="cls-7" points="111.35 266.83 174.3 281.29 201.3 287.49"/><line class="cls-7" x1="169.48" y1="374.08" x2="168.86" y2="374.24"/><line class="cls-7" x1="340.19" y1="359.88" x2="339.93" y2="359.84"/><polyline class="cls-7" points="159.71 376.72 151.35 378.98 254.24 413.6 254.38 413.55"/><path class="cls-7" d="M209.76,450,306,481l-.42,4.62-74,18.76-113-37.93L86.33,383.66s-4.69-10.22,3.24-9.74l96.17,27a12.28,12.28,0,0,1,7.73,7.76l1.16,3Z" transform="translate(-83.28 -144.77)"/><polyline class="cls-7" points="135.53 328.06 126.35 305.32 126.33 305.27"/><line class="cls-7" x1="148.26" y1="359.61" x2="142.21" y2="344.61"/><polygon class="cls-7" points="142.21 344.61 143.07 346.71 169.3 340.33 135.53 328.06 135.38 328.01 142.21 344.61"/><polyline class="cls-7" points="244.83 387.22 168.86 374.24 159.89 372.71 159.71 376.72 159.68 377.51 253.95 404.89 254.64 388.9 254.45 388.87"/><polygon class="cls-7" points="378.88 346.61 270.62 333.73 150.01 370.68 169.48 374.08 244.83 387.22 254.38 388.89 254.45 388.87 339.93 359.84 378.88 346.61"/><polygon class="cls-7" points="378.06 365.8 254.38 413.6 254.38 413.55 255.44 388.93 340.19 359.88 378.88 346.61 378.06 365.8"/><polyline class="cls-7" points="337.69 318.38 361.63 324.05 397.62 332.58"/><path class="cls-7" d="M393.7,304.72l1.85-1.07c2.18-1.24-5.92-11.33-5.92-11.33" transform="translate(-83.28 -144.77)"/><path class="cls-7" d="M336.76,303.65c-.3,2-2,6.83-3.66,12.14-.9,2.9-1.77,5.93-2.38,8.69a25.8,25.8,0,0,0-.8,6.86s10.57-18.82,15.19-21.47c2.07-1.19,3.28-.86,3.94.4,1.91,3.72-.94,15.5-.87,21.07,0,0,35.8-21,45.48-26.59" transform="translate(-83.28 -144.77)"/><path class="cls-7" d="M332.07,315.47l-.44.2c-1,.46-2.76,1.24-5,2.31-9.47,4.55-27.42,14.19-31.57,25.18l-14.52,70.65-23,12.25-.3.16" transform="translate(-83.28 -144.77)"/><line class="cls-7" x1="220.2" y1="205.23" x2="217.4" y2="195.9"/><path class="cls-7" d="M307.75,343.16a68.74,68.74,0,0,0-4.27,6.84c-.43.77-.88,1.6-1.33,2.49-1.06,2-2.17,4.38-3.22,6.94-3.75,9.1-6.82,21-4.67,33.18,0,0-3,30.64-2.84,34.28" transform="translate(-83.28 -144.77)"/><path class="cls-7" d="M400.68,307.9c9.79,6.31,31.68,20.88,33.29,26.1.38,1.23.48,5.16.36,10.8-.52,25.17-5.43,84.36-9.56,89.51-2.36,2.95-14.77,5.7-29.12,7.71-16.38,2.3-35.27,3.65-44.59,3.27-.33,0-.64-1.27-1.19-3.3-1.12-4.19-3.22-11.67-8.36-18.17a32,32,0,0,0-5.08-5.14s37.06-4.41,51.1-7.53c3.08-.69,9-4.49,9.64-6.32,1.19-3.58,3.52-53.88,3.52-53.88" transform="translate(-83.28 -144.77)"/><path class="cls-7" d="M396,304.93s1.75,1.09,4.51,2.86" transform="translate(-83.28 -144.77)"/><path class="cls-7" d="M350.12,441.86l-.25.13c-2.62,1.27-6.73,2-11.22,2.45-9.23.91-20.1.66-23.06,1.57-2.73.84-15.87,5.83-20.88,5.69s2.53-5.4,2.53-5.4" transform="translate(-83.28 -144.77)"/><path class="cls-7" d="M300.41,424.35c.7-.62,2.19-1.77,3.8-2.9,2.06-1.44,4.32-2.84,5.33-3a14,14,0,0,1,2,0c1.67.06,4.15.21,6.76.38,4.69.32,9.81.74,11.51.87l.58.05s6.82,0,10.86,4.31" transform="translate(-83.28 -144.77)"/><path class="cls-7" d="M320.36,421s-10.62-1.12-15,.87c-1,.46-2.78,1.36-4.92,2.49-2.37,1.25-5.19,2.77-8,4.27l-7.7,4.15c-2.29,1.23-4,2.11-4.45,2.3-1.8.71-7,6.25-2.6,6.25a7.3,7.3,0,0,0,2.22-.53c7-2.51,23.87-13.13,28.43-13.68" transform="translate(-83.28 -144.77)"/><path class="cls-7" d="M279.91,440.79s-7.12,5,2.5,3.6a38.88,38.88,0,0,0,8-2.24c7.63-2.91,15.14-7.46,17.62-8.2a40.77,40.77,0,0,1,5.6-1.31" transform="translate(-83.28 -144.77)"/><path class="cls-7" d="M290.42,442.24s-3.36,2.19-5.22,3.21c-3.27,1.81-3.71,6.53,6.51,3a50.42,50.42,0,0,0,5.46-2.28c7.56-3.65,13.41-8.29,16.8-8" transform="translate(-83.28 -144.77)"/><path class="cls-7" d="M270.83,226.11c6.37-.62,14.07,7.15,20.21,6.43-5.78.5-12,9.1-18.59,10.2-6.32,1.07-11.91-2.59-12.36-7.18S264.45,226.74,270.83,226.11Z" transform="translate(-83.28 -144.77)"/><path class="cls-7" d="M280.39,208.76c4.57,2.86,5.7,12,10.16,14.68-4.1-2.64-12.69-.12-17.64-2.77-4.76-2.54-6.6-7.86-4.54-11.15S275.82,205.89,280.39,208.76Z" transform="translate(-83.28 -144.77)"/><path class="cls-7" d="M571.9,330.79l10.5,66.84c-31,8-59.51,15-90,10.59l-8.65-67.12C529.67,342.25,547.73,335.33,571.9,330.79Z" transform="translate(-83.28 -144.77)"/><line class="cls-7" x1="479" y1="200.06" x2="485.63" y2="242.23"/><line class="cls-7" x1="466.34" y1="202.05" x2="472.97" y2="244.22"/><line class="cls-7" x1="453.69" y1="204.04" x2="460.31" y2="246.21"/><line class="cls-7" x1="441.03" y1="206.02" x2="447.65" y2="248.2"/><line class="cls-7" x1="428.37" y1="208.01" x2="434.99" y2="250.19"/><line class="cls-7" x1="415.71" y1="210" x2="422.34" y2="252.17"/><path class="cls-7" d="M522,214.16,565,266.44c-22.67,22.6-43.68,43.12-72.17,54.74l-41.49-53.47C491.44,245.44,503.5,230.32,522,214.16Z" transform="translate(-83.28 -144.77)"/><path class="cls-7" d="M218.19,321.7c-29.72-7-44.3-15.35-63.26-22.9L130.8,364.47c29.41,14.07,56.53,26.7,87.92,28.1l19-56.36" transform="translate(-83.28 -144.77)"/><path class="cls-7" d="M237.7,336.21c1.14.71,2.29,1.39,3.46,2.06l49.49-49.36c-37.5-28-47.59-45-64.08-63.89l-50.79,48c13.68,18,26.69,34.88,42.41,48.72A140.09,140.09,0,0,0,237.7,336.21Z" transform="translate(-83.28 -144.77)"/><line class="cls-7" x1="142.1" y1="97.77" x2="110.05" y2="128.02"/><line class="cls-7" x1="150.98" y1="107.36" x2="118.94" y2="137.62"/><line class="cls-7" x1="159.86" y1="116.95" x2="127.82" y2="147.21"/><line class="cls-7" x1="168.75" y1="126.54" x2="136.71" y2="156.81"/><line class="cls-7" x1="176.75" y1="134.41" x2="145.57" y2="163.58"/><line class="cls-7" x1="185.5" y1="143.77" x2="154.32" y2="172.92"/><path class="cls-7" d="M402.57,235.78c.5-.47,1-.9,1.47-1.3,6.82-5.77,11.28-5.14,13.68-1.45,1.92,2.93,2.54,7.81,2,12.93a.14.14,0,0,1,0,.06h0a34.64,34.64,0,0,1-3.06,11.13c-.27.56-.55,1.1-.85,1.63a41.1,41.1,0,0,1-2.44,3.82,24.27,24.27,0,0,1-2.18,2.69l-.27.29a13.66,13.66,0,0,1-2.84,2.33,7.3,7.3,0,0,1-1.54.71,11.77,11.77,0,0,0-5.07,3.55c-4.08,4.44-7.69,11.95-14,18.61-7.67,8.17-19.34,15.07-40.76,13.47a39.7,39.7,0,0,1-9.8-2,34.19,34.19,0,0,1-10.85-6c-5.26-4.3-9.74-10.56-12.81-19.3a65.9,65.9,0,0,1-2.35-8.49c-.21-1-.4-2-.58-3A103.84,103.84,0,0,1,309,251.8q-.13-3.12-.11-6.46a16.79,16.79,0,0,0-.13-2.05,54,54,0,0,0-2.6-10.15c-.26-.8-.53-1.61-.81-2.41" transform="translate(-83.28 -144.77)"/><path class="cls-7" d="M372.3,215.22c-3.57-.79-9.6-4.73-10.39-8.12" transform="translate(-83.28 -144.77)"/><path class="cls-7" d="M330.89,261.57c0,1.06,2.58,2.11,2.58,2.11" transform="translate(-83.28 -144.77)"/><path class="cls-7" d="M402,236.39c-1.82-.37-3.59-.77-5.33-1.2q-4.87-1.2-9.33-2.71a110.67,110.67,0,0,1-12.46-5,102,102,0,0,1-14.26-8.22A98.5,98.5,0,0,1,347,207.91a99.52,99.52,0,0,1-10.32-12.12l0,0a117.81,117.81,0,0,1-6.42-10s0,0,0,0c-1-1.78-1.62-2.8-1.88-2.8l-.76,1.42c-3.12,6-15.28,29.65-21.43,48.83-.21.66-.41,1.31-.61,2,0,0-20.67-37.19,15.07-71.87,8.39-7.52,20.78-17.28,43.59-16.77,1.36,0,2.77.08,4.22.14,23,1.08,56.63,8.33,63.65,66.77.8,12.26,0,24-6.4,49.6-7.56,30.27,6.4,32.26,6.4,32.26s-22.23,14.74-42.18-4" transform="translate(-83.28 -144.77)"/><path class="cls-7" d="M409.25,260.11a2.56,2.56,0,1,1-2.56-2.65A2.6,2.6,0,0,1,409.25,260.11Z" transform="translate(-83.28 -144.77)"/><path class="cls-7" d="M396,442.43a.57.57,0,0,0-.34-.12c-.67,0-1.94,1.45.34,14.52" transform="translate(-83.28 -144.77)"/><path class="cls-7" d="M435.5,344.83s25.6,2.14,30.93,24.54c6.43,27-4.26,10.13-21.33,98.66" transform="translate(-83.28 -144.77)"/><path class="cls-7" d="M446.7,364s8.53,4.8,6.93,18.67-17.6,67.2-20.8,82.67" transform="translate(-83.28 -144.77)"/><path class="cls-7" d="M318.14,232.69a9.41,9.41,0,0,0,1.68,2.88,6.63,6.63,0,0,0,.52.54" transform="translate(-83.28 -144.77)"/><path class="cls-7" d="M358.6,233.88a9.14,9.14,0,0,0,2.19,3.42" transform="translate(-83.28 -144.77)"/><path class="cls-7" d="M333.1,281.9s11.07-2.27,18.53,4.67" transform="translate(-83.28 -144.77)"/><path class="cls-7" d="M311,268a.81.81,0,0,1,0,.1c0,.08,0,.22,0,.4-.21,3.66-2,26.48-13.31,27-12.26.53,20.27,10.93,28.27,1.07" transform="translate(-83.28 -144.77)"/><path class="cls-7" d="M393.7,304.72s0,0,0,0l-.1.1c-2.77,2.71-45.73,45.54-61.66,105.24q-1.09,4-2,8.21" transform="translate(-83.28 -144.77)"/><polyline class="cls-7" points="317.42 162.73 317.4 163.13 315.95 190.73 295.42 196.06 302.62 215.8 252.99 262.2 249.42 265.53"/><path class="cls-7" d="M329.9,324.3s-24.46,31.4-26,88.27q-.11,4,0,8.13" transform="translate(-83.28 -144.77)"/><path class="cls-7" d="M327.1,317.5l-.45.48-18,19.12,3.87,6.67-10.42,8.72-2.65,2.21a42.58,42.58,0,0,0-.57,4.73c-.61,7.67-.81,24.88,4.84,53.14" transform="translate(-83.28 -144.77)"/><path class="cls-7" d="M347.42,311.15s-21.53,35.53-25.92,57.15a187.83,187.83,0,0,0-3.22,50.51c0,.19,0,.29,0,.29" transform="translate(-83.28 -144.77)"/></g></svg>