<svg id="Layer_1" data-name="Layer 1" xmlns="http://www.w3.org/2000/svg" xmlns:xlink="http://www.w3.org/1999/xlink" viewBox="0 0 283.96 488.01"><defs><style>.cls-1,.cls-6,.cls-7{fill:none;}.cls-2{clip-path:url(#clip-path);}.cls-3{fill:#ea5c67;}.cls-4{fill:#fff;}.cls-5{fill:#595857;}.cls-6,.cls-7{stroke:#595857;stroke-linecap:round;stroke-width:3.35px;}.cls-6{stroke-linejoin:round;}.cls-7{stroke-miterlimit:10;}</style><clipPath id="clip-path" transform="translate(-195.9 -66.15)"><rect class="cls-1" width="612.28" height="612.28"/></clipPath></defs><title>propose</title><g class="cls-2"><path class="cls-3" d="M245.08,222c-22.63-7.41-26.47-19.53-27.82-40.94l.32,0c4.21,6.29,9.12,6.31,9.12,6.31l1.44-.4c4.81,17,11.45,28.22,18.64,35.6l-1.7-.54" transform="translate(-195.9 -66.15)"/><path class="cls-4" d="M224.13,181a1.49,1.49,0,1,0-1.49,1.49,1.48,1.48,0,0,0,1.49-1.49m.72-8.25c1,5.11,2.06,9.81,3.29,14.13l-1.44.4s-4.91,0-9.12-6.31a30.81,30.81,0,0,1-4-9.6c-6.08-23.9,8.66-14.11,9.11-13.8h0q.68,7.2,2.17,15.18" transform="translate(-195.9 -66.15)"/><path class="cls-3" d="M316.13,223.18c8.07-8.64,14.85-22.71,17-45.61a127,127,0,0,0,1.55-13.94l-1.94,0c-17.42-3.3-20-13.07-20.22-13.59-1.65-3.91-2.93-7-3.92-9.33-4.52-10.73-3-6.65-1.77-.1.91,5.07,1.61,11.63-.93,13.93-31.21,4.78-60.08-43.85-60.08-43.85-32.89,24.86-23.53,42.16-23.53,42.16.1,1.57.22,3.16.37,4.78-.45-.31-15.19-10.1-9.11,13.8a30.81,30.81,0,0,0,4,9.6l-.32,0c1.35,21.41,5.19,33.53,27.82,40.94-41.38,1.6-47-21.79-39.1-52.42,6.59-25.44,5.24-71.15,37.93-90.53,17.35-10.27,37.28-14.23,62-8.71l6.62,1.74s18.34,6.63,27.58,21.68c16.52,26.91,14.31,33.59,19,70.84,3.09,24.78,5,44.32-22.78,57-9.14,4.16-17.82,1.17-19.81,2Z" transform="translate(-195.9 -66.15)"/><path class="cls-3" d="M269.45,519.23c3.75,6,6.48,1.69,5-1.48-1.93-4.27-5-10.91-5.35-11.73.52,1,6,11.83,9.79,18.62,2,3.51,5.82,1.65,5.2-1.57-.35-1.81-5.47-12.35-7.69-16.88a214,214,0,0,0,10.88,19.44c3.35,5,7.4-.33,5.92-2.84s-11-21.43-11.35-22a81.19,81.19,0,0,1,4.39,6.9c.73,1.51,1.88,3.31,6.11,10.53,3,5.18,8.4,2.06,5.21-4.09-2.24-4.34-11.88-22.86-12.18-23.44a61,61,0,0,0,7.11,2.57c3,.78,6.4-3.12,3.39-5.36-1.43-1.07-7.31-5.63-9.26-6.8-1.31-.79-4.76-3.14-6.91-4.62a17.93,17.93,0,0,0-3.22-1.74l0-.08c4.41-2.82,7.46-4.91,7.46-4.91s-5.76-8-13.56-21.41l.9-.53s9.63,1.64,12.66.46l2-.46.7,0c13.34,1,43.35-.43,58.16-5.24l2,.19c3.41,15.52,8.32,22.86,18.3,109.69H206.48c10.78-87.71,14.95-91.32,18.35-106.85l.34-.13c9.67,26.45,15.66,43.8,21.27,43.93a19.3,19.3,0,0,0,7-1.89l.11.26a17,17,0,0,0,.83,5c1,3.21,6,8.63,8.43,14.31a93.91,93.91,0,0,0,6.68,12.11" transform="translate(-195.9 -66.15)"/><path class="cls-4" d="M441.11,252c-3-1.39-5.84-2.73-9.78-2.65a32.18,32.18,0,0,0-3.95.31c2.31-.94,12.36-6.46,14.83-5.93,3.1.65,1.74,5.62-1,8Z" transform="translate(-195.9 -66.15)"/><path class="cls-4" d="M427.38,249.68a32.19,32.19,0,0,1,3.95-.31c3.94-.08,6.79,1.26,9.78,2.65.74.34,1.49.68,2.27,1a24.6,24.6,0,0,0,3.72,1.27,20.84,20.84,0,0,0,5.25.62,30.26,30.26,0,0,0,7.12-1c15.48-3.95,21.82-.16,17.26.87-21.92,5-34.77,9.3-41.07,11.74a10.87,10.87,0,0,0-3.53,2c-1.35,1.27-1.31,2.49-1.64,3.5l-.07.62c-3.2-.41-12.39-4.14-16.09-7.23l1.13-.32a8.63,8.63,0,0,0,1.35-4.34c.2-2.37-.05-4.71,1.16-6.51.52-.78,2.79-3.62,9.41-4.58" transform="translate(-195.9 -66.15)"/><path class="cls-4" d="M276,505.23c-.05-.11-.1-.21-.15-.3,0,.09.1.19.15.3m.47.93c-.13-.25-.24-.49-.35-.7.1.21.22.45.35.7m0,0c2.22,4.53,7.34,15.07,7.69,16.88.62,3.22-3.24,5.08-5.2,1.57-3.79-6.79-9.27-17.59-9.79-18.62.37.82,3.42,7.46,5.35,11.73,1.44,3.17-1.29,7.51-5,1.48a93.91,93.91,0,0,1-6.68-12.11c-2.45-5.68-7.4-11.1-8.43-14.31a17,17,0,0,1-.83-5l-.11-.26c7-2.94,16.55-8.72,23.08-12.9l.05.08a17.87,17.87,0,0,1,3.22,1.74c2.15,1.48,5.6,3.83,6.91,4.62,2,1.17,7.83,5.73,9.26,6.8,3,2.24-.4,6.14-3.39,5.36a61,61,0,0,1-7.11-2.57c.3.58,9.94,19.1,12.18,23.44,3.19,6.15-2.17,9.27-5.21,4.09-4.23-7.22-5.38-9-6.11-10.53a81.19,81.19,0,0,0-4.39-6.9c.3.59,9.87,19.5,11.35,22s-2.57,7.83-5.92,2.84a214,214,0,0,1-10.88-19.44" transform="translate(-195.9 -66.15)"/><path class="cls-4" d="M304.93,168.12a5.07,5.07,0,1,0,2.54-.68,5.08,5.08,0,0,0-2.54.68m-49.44.79a5.06,5.06,0,1,0,3.57-1.47,5.05,5.05,0,0,0-3.57,1.47m77.26-5.31,1.94,0a126.83,126.83,0,0,1-1.55,13.94c-2.16,22.9-8.94,37-17,45.61a41.32,41.32,0,0,1-15.9,10.67,47.72,47.72,0,0,1-16.72,2.87c-5.5,0-13.34-.31-21.62-3.79h0a45.59,45.59,0,0,1-15.1-10.41c-7.19-7.38-13.83-18.59-18.64-35.6-1.23-4.32-2.33-9-3.29-14.13q-1.5-8-2.17-15.18h0c-.15-1.62-.27-3.21-.37-4.78,0,0-9.36-17.3,23.53-42.16,0,0,28.87,48.63,60.08,43.85,2.54-2.3,1.84-8.86.93-13.93a12.27,12.27,0,0,1,1.77.1c1,2.35,2.27,5.42,3.92,9.33.22.52,2.8,10.29,20.22,13.59" transform="translate(-195.9 -66.15)"/><path class="cls-4" d="M300.23,233.85l0,.1a4.29,4.29,0,0,0,.35,5.52c-7.65,5.16-12.91,5.09-18.69,8.24-11.25-4-19.29-6.13-19.29-6.13a8.1,8.1,0,0,0,.65-1c2.22-4.24-1.24-7.45-1.4-7.6,8.28,3.48,16.12,3.79,21.62,3.79a47.72,47.72,0,0,0,16.72-2.87" transform="translate(-195.9 -66.15)"/><path class="cls-4" d="M282.4,247.85a4,4,0,0,0-.45.16l0-.3c5.78-3.15,11-3.08,18.69-8.24,3.58,2.13,13.36,11,13.94,11.73.11.13-.41.61-1.37,1.34-4.23,3.19-17.06,11.1-23.21,14.61,1.13-5-1.82-16-6-18.7v-1a6.85,6.85,0,0,0-1.52.36" transform="translate(-195.9 -66.15)"/><path class="cls-4" d="M251.65,252.58c.59-.72,6.65-10.14,10.23-12.26l1.41.21a8.1,8.1,0,0,1-.65,1s8,2.11,19.29,6.13l0,.3c-6.87,2.79-12.67,15.26-11.52,20.38-6.22-3.55-15.33-11.49-18-14.58-.58-.66-.86-1.1-.76-1.23" transform="translate(-195.9 -66.15)"/><path class="cls-4" d="M281.48,263.27c0-1.79-1.17-3.24-2.62-3.24s-2.62,1.45-2.62,3.24,1.18,3.24,2.62,3.24,2.62-1.45,2.62-3.24m.63,40.44c0-1.79-1.17-3.24-2.62-3.24s-2.61,1.45-2.61,3.24,1.17,3.24,2.61,3.24,2.62-1.45,2.62-3.24m1.76,130c0-1.79-1.18-3.24-2.62-3.24s-2.62,1.45-2.62,3.24,1.17,3.24,2.62,3.24,2.62-1.45,2.62-3.24m-13.49,14.62c7.8,13.45,13.56,21.41,13.56,21.41s-3,2.09-7.46,4.91c-6.53,4.18-16.06,10-23.08,12.9a19.31,19.31,0,0,1-7,1.89c-5.61-.13-11.6-17.48-21.27-43.93q-2.28-6.27-4.87-13.2c-36.4-97.2-22-150.4-5.6-161.2a131.11,131.11,0,0,1,36.93-16.8l.78-.49c2.69,3.09,11.8,11,18,14.58-1.15-5.12,4.65-17.59,11.52-20.38a4,4,0,0,1,.45-.16,3.6,3.6,0,0,1,1.53.6l2.68,199.39-.7-.05-2,.46c-3,1.18-12.66-.46-12.66-.46Zm12.12-61.49c0-1.79-1.17-3.24-2.61-3.24s-2.62,1.45-2.62,3.24,1.17,3.24,2.62,3.24,2.61-1.45,2.61-3.24m-.39-39.74c0-1.79-1.17-3.24-2.62-3.24s-2.61,1.45-2.61,3.24,1.17,3.24,2.61,3.24,2.62-1.45,2.62-3.24" transform="translate(-195.9 -66.15)"/><path class="cls-4" d="M375.15,312.81c8.2-18.45,24.69-43,33.14-51.7,2.41-2.48,7-.7,7.78-.4l.74.06a8.64,8.64,0,0,1-1.35,4.34l-1.13.32c3.7,3.09,12.89,6.82,16.09,7.23l.07-.62c.33-1,.29-2.23,1.64-3.5l1.86.07c3.38,2.35,4,2.8,4,5.18,0,10.81-47.85,81.47-56.33,89.37-16.52,15.41-27.06-4.86-32-14.82-2.07-4.17-6.72-19.66-10.37-31.93,2.34,10.22,3.83,23.06,1.15,34.43-6.61,28,8.81,90,8.81,90a30.32,30.32,0,0,1-4.45,1.79c-14.81,4.81-44.82,6.22-58.16,5.24l-2.68-199.39c4.23,2.71,7.18,13.69,6,18.7,6.15-3.51,19-11.42,23.21-14.61l.37,0s9.32,6.07,30.67,13.47c10.54,3.66,19.14,6,30.68,46.65Z" transform="translate(-195.9 -66.15)"/><path class="cls-5" d="M304.93,168.12a5.07,5.07,0,1,1-2.53,4.39,5.07,5.07,0,0,1,2.53-4.39" transform="translate(-195.9 -66.15)"/><path class="cls-5" d="M281.25,430.46c1.44,0,2.62,1.45,2.62,3.24s-1.18,3.24-2.62,3.24-2.62-1.45-2.62-3.24,1.17-3.24,2.62-3.24" transform="translate(-195.9 -66.15)"/><path class="cls-5" d="M279.89,383.59c1.44,0,2.61,1.45,2.61,3.24s-1.17,3.24-2.61,3.24-2.62-1.45-2.62-3.24,1.17-3.24,2.62-3.24" transform="translate(-195.9 -66.15)"/><path class="cls-5" d="M279.49,300.47c1.45,0,2.62,1.45,2.62,3.24s-1.17,3.24-2.62,3.24-2.61-1.45-2.61-3.24,1.17-3.24,2.61-3.24" transform="translate(-195.9 -66.15)"/><path class="cls-5" d="M279.49,343.85c1.45,0,2.62,1.45,2.62,3.24s-1.17,3.24-2.62,3.24-2.61-1.45-2.61-3.24,1.17-3.24,2.61-3.24" transform="translate(-195.9 -66.15)"/><path class="cls-5" d="M278.86,260c1.45,0,2.62,1.45,2.62,3.24s-1.17,3.24-2.62,3.24-2.62-1.45-2.62-3.24,1.18-3.24,2.62-3.24" transform="translate(-195.9 -66.15)"/><path class="cls-5" d="M255.49,168.91a5.06,5.06,0,1,1-1.5,3.6,5.07,5.07,0,0,1,1.5-3.6" transform="translate(-195.9 -66.15)"/><path class="cls-6" d="M222.67,157.6c-.15-1.62-.27-3.21-.37-4.78,0,0-9.36-17.3,23.53-42.16,0,0,28.87,48.63,60.08,43.85,2.54-2.3,1.84-8.86.93-13.93-1.19-6.55-2.75-10.63,1.77.1,1,2.35,2.27,5.42,3.92,9.33.22.52,2.8,10.29,20.22,13.59" transform="translate(-195.9 -66.15)"/><path class="cls-6" d="M261.88,232.92a45.59,45.59,0,0,1-15.1-10.41c-7.19-7.38-13.83-18.59-18.64-35.6-1.23-4.32-2.33-9-3.29-14.13q-1.5-8-2.17-15.18" transform="translate(-195.9 -66.15)"/><path class="cls-6" d="M333.14,177.57c-2.16,22.9-8.94,37-17,45.61a41.31,41.31,0,0,1-15.9,10.67,47.72,47.72,0,0,1-16.72,2.87c-5.5,0-13.34-.31-21.62-3.79" transform="translate(-195.9 -66.15)"/><path class="cls-7" d="M222.68,157.6h0c-.45-.31-15.19-10.1-9.11,13.8a30.81,30.81,0,0,0,4,9.6c4.21,6.29,9.12,6.31,9.12,6.31" transform="translate(-195.9 -66.15)"/><path class="cls-6" d="M261.88,232.92h0c.16.15,3.62,3.36,1.4,7.6a8.1,8.1,0,0,1-.65,1s8,2.11,19.29,6.13c5.78-3.15,11-3.08,18.69-8.24a4.29,4.29,0,0,1-.35-5.52h0" transform="translate(-195.9 -66.15)"/><path class="cls-6" d="M251.63,254.3a131.11,131.11,0,0,0-36.93,16.8c-16.4,10.8-30.8,64,5.6,161.2q2.59,6.92,4.87,13.2c9.67,26.45,15.66,43.8,21.27,43.93a19.31,19.31,0,0,0,7-1.89c7-2.94,16.55-8.72,23.08-12.9,4.41-2.82,7.46-4.91,7.46-4.91s-5.76-8-13.56-21.41c-16.46-28.4-42-81.3-41.67-135.62,0-2.52-.24-3-3.53-6" transform="translate(-195.9 -66.15)"/><path class="cls-6" d="M349.22,440.81s-15.42-61.94-8.81-90c2.68-11.37,1.19-24.21-1.15-34.43a114.21,114.21,0,0,0-3.67-12.7" transform="translate(-195.9 -66.15)"/><path class="cls-6" d="M313.56,252.58s9.32,6.07,30.67,13.47c10.54,3.66,19.14,6,30.68,46.65" transform="translate(-195.9 -66.15)"/><path class="cls-6" d="M346.81,442.79c3.41,15.52,8.32,22.86,18.3,109.69H206.48c10.78-87.71,15-91.32,18.35-106.85" transform="translate(-195.9 -66.15)"/><path class="cls-7" d="M265.65,142.33s-7.61-5.94-18.87,4.06" transform="translate(-195.9 -66.15)"/><path class="cls-7" d="M300.88,142.33a10.39,10.39,0,0,1,6-1.75,12.27,12.27,0,0,1,1.77.1c3,.38,6.81,1.86,11.14,5.71" transform="translate(-195.9 -66.15)"/><path class="cls-6" d="M255.15,166.31a2.29,2.29,0,0,0,.34,2.6,3.55,3.55,0,0,0,.72.64" transform="translate(-195.9 -66.15)"/><path class="cls-6" d="M304.7,165.64a2.28,2.28,0,0,0,.23,2.48,3.6,3.6,0,0,0,.82.76" transform="translate(-195.9 -66.15)"/><path class="cls-6" d="M279.49,197.39a6.09,6.09,0,0,0,6.7,0" transform="translate(-195.9 -66.15)"/><path class="cls-6" d="M224.13,181a1.49,1.49,0,1,1-1.49-1.49A1.49,1.49,0,0,1,224.13,181Z" transform="translate(-195.9 -66.15)"/><path class="cls-6" d="M222.64,162.31a5.31,5.31,0,0,0-5.38-1.83" transform="translate(-195.9 -66.15)"/><path class="cls-6" d="M285.91,447.79l.7.05c13.34,1,43.35-.43,58.16-5.24a30.41,30.41,0,0,0,4.45-1.79" transform="translate(-195.9 -66.15)"/><path class="cls-6" d="M271.28,447.79s9.63,1.64,12.66.46" transform="translate(-195.9 -66.15)"/><path class="cls-6" d="M434,268.61c3.38,2.35,4,2.8,4,5.18,0,10.81-47.85,81.47-56.33,89.37-16.52,15.41-27.06-4.86-32-14.82-2.07-4.17-6.72-19.66-10.37-31.93-2.41-8.11-4.38-14.81-4.88-15.93" transform="translate(-195.9 -66.15)"/><path class="cls-6" d="M370.63,326a62.62,62.62,0,0,1,4.52-13.23c8.2-18.45,24.69-43,33.14-51.7,2.41-2.48,7-.7,7.78-.4" transform="translate(-195.9 -66.15)"/><path class="cls-6" d="M413.07,264.08a6.34,6.34,0,0,0,1.26,1.35c3.7,3.09,12.89,6.82,16.09,7.23a2.21,2.21,0,0,0,.91,0" transform="translate(-195.9 -66.15)"/><path class="cls-6" d="M415.46,265.11a8.65,8.65,0,0,0,1.35-4.34c.2-2.37,0-4.71,1.16-6.51.52-.78,2.79-3.62,9.41-4.58a32.19,32.19,0,0,1,4-.31c3.94-.08,6.79,1.26,9.78,2.65.74.34,1.49.68,2.27,1a24.6,24.6,0,0,0,3.72,1.27,20.83,20.83,0,0,0,5.25.62,30.27,30.27,0,0,0,7.12-1c15.48-4,21.82-.16,17.26.87-21.92,5-34.77,9.3-41.07,11.74a10.87,10.87,0,0,0-3.53,2c-1.35,1.27-1.31,2.49-1.64,3.5" transform="translate(-195.9 -66.15)"/><path class="cls-6" d="M427.34,249.7l0,0c2.31-.94,12.36-6.46,14.83-5.93,3.1.65,1.74,5.62-1,8" transform="translate(-195.9 -66.15)"/><path class="cls-6" d="M452.35,254.91c3.17-1.29,8.88-3.91,13.43-5.35s7.87-1.7,6.5,1.61" transform="translate(-195.9 -66.15)"/><path class="cls-6" d="M447.1,254.3a67.16,67.16,0,0,1,10.16-4.15c5.47-1.87,10.63-3.12,8.46-.78" transform="translate(-195.9 -66.15)"/><path class="cls-6" d="M443.56,252.58c4.6-2.86,21.83-10.1,13.7-2.44" transform="translate(-195.9 -66.15)"/><path class="cls-6" d="M217.26,181c1.35,21.41,5.19,33.53,27.82,40.94l1.7.54" transform="translate(-195.9 -66.15)"/><path class="cls-6" d="M316.49,223.51c2-.8,10.67,2.19,19.81-2,27.81-12.65,25.87-32.19,22.78-57-4.66-37.25-2.45-43.93-19-70.84-9.24-15-27.58-21.68-27.58-21.68l-6.62-1.74c-24.72-5.52-44.65-1.56-62,8.71C211.22,98.4,212.57,144.11,206,169.55c-7.94,30.63-2.28,54,39.1,52.42h0" transform="translate(-195.9 -66.15)"/><path class="cls-6" d="M319.75,108.44c14.31,15,15.89,39,14.94,55.19a126.83,126.83,0,0,1-1.55,13.94" transform="translate(-195.9 -66.15)"/><path class="cls-6" d="M344.17,154.12c6.19,13.14,1.55,45.1-4.45,55.16" transform="translate(-195.9 -66.15)"/><path class="cls-6" d="M273.82,211.12c2,1.93,11.71,5,19.06.39" transform="translate(-195.9 -66.15)"/><path class="cls-6" d="M261.88,240.32c-3.58,2.12-9.64,11.54-10.23,12.26-.1.13.18.57.76,1.23,2.69,3.09,11.8,11,18,14.58-1.15-5.12,4.65-17.59,11.52-20.38a4,4,0,0,1,.45-.16,6.85,6.85,0,0,1,1.52-.36v1l2.68,199.39V448" transform="translate(-195.9 -66.15)"/><path class="cls-6" d="M282.4,247.85a3.6,3.6,0,0,1,1.53.6c4.23,2.71,7.18,13.69,6,18.7,6.15-3.51,19-11.42,23.21-14.61,1-.73,1.48-1.21,1.37-1.34-.58-.72-10.36-9.6-13.94-11.73" transform="translate(-195.9 -66.15)"/><path class="cls-6" d="M404.17,274.12c2.13,4.64,18,12.77,22.26,12.58" transform="translate(-195.9 -66.15)"/><path class="cls-6" d="M253.2,474.64c3.68,0,18.08-8.91,20.13-12.4" transform="translate(-195.9 -66.15)"/><path class="cls-6" d="M269.1,505.94l0,.08c.37.82,3.42,7.46,5.35,11.73,1.44,3.17-1.29,7.51-5,1.48a93.92,93.92,0,0,1-6.68-12.11c-2.45-5.68-7.4-11.1-8.43-14.31a17,17,0,0,1-.83-5" transform="translate(-195.9 -66.15)"/><path class="cls-6" d="M276.44,506.19c2.22,4.53,7.34,15.07,7.69,16.88.62,3.22-3.24,5.08-5.2,1.57-3.79-6.79-9.27-17.59-9.79-18.62" transform="translate(-195.9 -66.15)"/><path class="cls-6" d="M276.08,505.46c.1.21.22.45.35.7" transform="translate(-195.9 -66.15)"/><path class="cls-6" d="M275.42,504.13h0c0,.05.12.26.29.6,0,.05,0,.1.08.16s0,0,0,0,.1.19.15.3" transform="translate(-195.9 -66.15)"/><path class="cls-6" d="M276,505.23c-.05-.11-.1-.21-.15-.3" transform="translate(-195.9 -66.15)"/><path class="cls-6" d="M276,505.23l.12.23" transform="translate(-195.9 -66.15)"/><path class="cls-6" d="M276.43,506.16c-.13-.25-.24-.49-.35-.7" transform="translate(-195.9 -66.15)"/><path class="cls-6" d="M276.43,506.16a0,0,0,0,1,0,0" transform="translate(-195.9 -66.15)"/><path class="cls-6" d="M281.88,500.76h0c.3.59,9.87,19.5,11.35,22s-2.57,7.83-5.92,2.84a214,214,0,0,1-10.88-19.44" transform="translate(-195.9 -66.15)"/><path class="cls-6" d="M285.41,490.66h0c.3.58,9.94,19.1,12.18,23.44,3.19,6.15-2.17,9.27-5.21,4.09-4.23-7.22-5.38-9-6.11-10.53a81.08,81.08,0,0,0-4.39-6.9" transform="translate(-195.9 -66.15)"/><path class="cls-6" d="M276.53,474.72a17.93,17.93,0,0,1,3.22,1.74c2.15,1.48,5.6,3.83,6.91,4.62,2,1.17,7.83,5.73,9.26,6.8,3,2.24-.4,6.14-3.39,5.36a61,61,0,0,1-7.11-2.57" transform="translate(-195.9 -66.15)"/></g></svg>