<svg id="Layer_1" data-name="Layer 1" xmlns="http://www.w3.org/2000/svg" xmlns:xlink="http://www.w3.org/1999/xlink" viewBox="0 0 205.17 460.54"><defs><style>.cls-1,.cls-7,.cls-8{fill:none;}.cls-2{clip-path:url(#clip-path);}.cls-3{fill:#ea5c67;}.cls-4{fill:#f6bcb8;}.cls-5{fill:#fff;}.cls-6{fill:#595857;}.cls-7,.cls-8{stroke:#595857;stroke-linecap:round;stroke-width:3.35px;}.cls-7{stroke-linejoin:round;}.cls-8{stroke-miterlimit:10;}</style><clipPath id="clip-path" transform="translate(-214.41 -85.38)"><rect class="cls-1" width="612.28" height="612.28"/></clipPath></defs><title>trust</title><g class="cls-2"><path class="cls-3" d="M415.54,346c2.94,5.35,1.53,12.35,0,17.74-1.65,5.79-6.33,40.6-34.41,37.91-.69-.06-1.4-.15-2.12-.26V401c12.85.35,18-10.65,17.17-16.67a16.72,16.72,0,0,0-.79-3.26l.7-.09c1.37-1.79,4.71-5.21,6.16-7.26A86,86,0,0,0,415.54,346" transform="translate(-214.41 -85.38)"/><path class="cls-4" d="M219.92,342.9C206,291.13,247,255.22,288,265.38a63.9,63.9,0,0,1,19.08,8.32,75.56,75.56,0,0,1,11,8.63c.81-.76,1.63-1.5,2.45-2.22a74.32,74.32,0,0,1,6.47-5,57.26,57.26,0,0,1,25-9.74c39.14-5.08,75.7,34.68,63.59,80.63a86,86,0,0,1-13.28,27.72c-1.45,2-4.79,5.47-6.16,7.26l-.7.09c-.09-.23-.17-.46-.26-.68l.26-.11s.1-2.89-1.78-10.92c-2.07-8.86-5.9-.17-5.9-.17l-1.16.13c-4.45-4.81-7.42-7.09-12.82-8.42-8.55-2.09-10-2.44-13.43-.64s-6.89,9.64-6.43,13.9,13.54,24.67,20.63,26.3A25.93,25.93,0,0,0,379,401v.39c.72.11,1.43.2,2.12.26l-.07.75c-2.86,2-6.64,4.51-11.11,7.5-8.65,5.78-19.85,13.31-31.82,22.06-6.56,4.79-13.34,9.95-20.06,15.4C311.15,441.73,303.5,435.3,296,429c-14.09-11.84-27.62-23.19-34.76-27.92l-2.4-.61c5.31-2.21,20.17-22,20.63-26.3s-3-12.11-6.43-13.9-4.88-1.45-13.43.64c-5.64,1.39-8.62,3.81-13.4,9.06l-.58-.77s-3.82-8.69-5.9.17c-.82,3.52-1.45,6.17-1.91,8.05l-1.36-.11c-8.28-12-13.63-23.55-16.56-34.42" transform="translate(-214.41 -85.38)"/><path class="cls-3" d="M378.74,426.08c.5,6.19,33,88.23,26.82,118.17H216.81C210.2,514.31,250.46,429.19,251,423a19.93,19.93,0,0,1,.55-3.21c6.1,1.76,34.79,10.08,43.95,9.84L296,429c7.48,6.29,15.13,12.72,22,18.37,6.72-5.45,13.5-10.61,20.06-15.4l0,.05c6-1.56,30.9-5.5,38.66-10.4l1.13-.29a29.24,29.24,0,0,1,.78,4.74" transform="translate(-214.41 -85.38)"/><path class="cls-5" d="M396.19,384.35c.83,6-4.32,17-17.17,16.67a26,26,0,0,1-4.51-.54c-7.09-1.63-20.16-22-20.63-26.3s3-12.11,6.43-13.9,4.88-1.45,13.43.64c5.4,1.33,8.37,3.61,12.82,8.42,1.74,1.89,3.71,4.16,6.15,6.91a14.9,14.9,0,0,1,2.43,4.16c.09.22.17.45.26.68a16.72,16.72,0,0,1,.79,3.26" transform="translate(-214.41 -85.38)"/><path class="cls-5" d="M393.62,369.38c1.88,8,1.78,10.92,1.78,10.92l-.26.11a14.89,14.89,0,0,0-2.43-4.16c-2.44-2.75-4.41-5-6.15-6.91l1.16-.13s3.83-8.69,5.9.17" transform="translate(-214.41 -85.38)"/><path class="cls-3" d="M362.71,176.33l-.81.07c-40.8,1.2-77.6-43.6-77.6-43.6,2.8,16.8-34.81,46.35-34.81,46.35.27,1.54.59,3.1.94,4.69h0s-6.47-3.43-9.08-.15l-1.42-.9S224,102.41,293.73,89s81.19,46,85.21,58.8c3.76,12-1.57,63.69,23,78.09,0,0-24.4,22.8-56.4,11.2l-2.4-.11c9.61-8,18.31-22,20-45.68a108.56,108.56,0,0,0-.41-15" transform="translate(-214.41 -85.38)"/><path class="cls-3" d="M378,421.34l-1.13.29c-7.76,4.9-32.62,8.84-38.66,10.4l0,0c12-8.75,23.17-16.28,31.82-22.06l2.79.07A38.08,38.08,0,0,1,378,421.34" transform="translate(-214.41 -85.38)"/><path class="cls-5" d="M362.71,176.33a108.56,108.56,0,0,1,.41,15C361.41,215,352.71,229,343.1,237a45.48,45.48,0,0,1-8.26,5.51,42.56,42.56,0,0,1-15.11,4.65,71.81,71.81,0,0,1-20.34-.77,53.72,53.72,0,0,1-15.68-5.52c-9.11-5-17.65-13.27-24-26.81a94.08,94.08,0,0,1-5.49-15.35c-1.4-5.24-2.77-10.16-3.83-14.86-.35-1.59-.67-3.15-.94-4.69,0,0,37.61-29.55,34.81-46.35,0,0,36.8,44.8,77.6,43.6Z" transform="translate(-214.41 -85.38)"/><path class="cls-5" d="M352,265.38h0a57.26,57.26,0,0,0-25,9.74l-.29-.43c1.13-5-2.14-11.78-6.43-13.61v-.8a18.1,18.1,0,0,0-2,.35l0-.13c5.77-3.15,11-3.08,18.68-8.24,3.58,2.13,14.42,12.39,15,13.11" transform="translate(-214.41 -85.38)"/><path class="cls-5" d="M334.84,242.5l.53,1s-.93,6,1.58,8.77c-7.65,5.16-12.91,5.09-18.68,8.24-11.26-4-19.3-6.13-19.3-6.13a13.15,13.15,0,0,0,.79-1.23c2.19-4.05-.49-6.14-.49-6.14l.12-.63a71.81,71.81,0,0,0,20.34.77,42.56,42.56,0,0,0,15.11-4.65" transform="translate(-214.41 -85.38)"/><path class="cls-5" d="M326.7,274.7l.29.43a74.14,74.14,0,0,0-6.47,5l-.25-19c4.29,1.83,7.56,8.59,6.43,13.61" transform="translate(-214.41 -85.38)"/><path class="cls-5" d="M320.27,261.09l.25,19c-.82.72-1.64,1.46-2.45,2.22a75.63,75.63,0,0,0-11-8.63l.15-.23c-1.15-5.12,4.27-11.15,11.09-12.83a18.13,18.13,0,0,1,1.95-.35ZM317.81,271c0-1.79-1.17-3.24-2.62-3.24s-2.61,1.45-2.61,3.24,1.17,3.24,2.61,3.24,2.62-1.45,2.62-3.24" transform="translate(-214.41 -85.38)"/><path class="cls-5" d="M318.27,260.51l0,.13c-6.82,1.68-12.24,7.71-11.09,12.83l-.15.23A63.86,63.86,0,0,0,288,265.38c.58-.72,6.64-10.14,10.22-12.26l1.55,0a13.13,13.13,0,0,1-.79,1.23s8,2.11,19.3,6.13" transform="translate(-214.41 -85.38)"/><path class="cls-6" d="M315.19,267.73c1.45,0,2.62,1.45,2.62,3.24s-1.17,3.24-2.62,3.24-2.61-1.45-2.61-3.24,1.17-3.24,2.61-3.24" transform="translate(-214.41 -85.38)"/><path class="cls-3" d="M296,429l-.52.62c-9.16.24-37.85-8.08-43.95-9.84,1.24-4.81,4.26-9.45,8.79-18l.92-.67c7.14,4.73,20.67,16.08,34.76,27.92" transform="translate(-214.41 -85.38)"/><path class="cls-3" d="M283.71,240.86l-.21.64s-19.6,10.8-49.2,6c0,0,21.2-19.1,11.2-42.7l.29-.17c4.75,7.79,10.23,8.31,11.61,8.31l2.35,1.11c6.31,13.54,14.85,21.85,24,26.81" transform="translate(-214.41 -85.38)"/><path class="cls-5" d="M273.06,360.28c3.46,1.79,6.9,9.64,6.43,13.9s-15.32,24.09-20.63,26.3a24.39,24.39,0,0,1-3,.45c-13.95,1.29-19.53-10.33-18.67-16.58a16.18,16.18,0,0,1,.81-3.29,15.38,15.38,0,0,1,2.68-4.81c2.17-2.45,4-4.51,5.56-6.27,4.78-5.25,7.76-7.67,13.4-9.06,8.55-2.09,10-2.44,13.43-.64" transform="translate(-214.41 -85.38)"/><path class="cls-5" d="M257.4,212.94c-1.38,0-6.86-.52-11.61-8.31a35.2,35.2,0,0,1-2.9-6c-3.28-8.69-3.1-13-1.57-14.89,2.61-3.28,9.08.15,9.08.15h0c1.06,4.7,2.43,9.62,3.83,14.86a94.08,94.08,0,0,0,5.49,15.35Zm-4.24-4.32a1.49,1.49,0,1,0-1.65-1.32,1.49,1.49,0,0,0,1.65,1.32" transform="translate(-214.41 -85.38)"/><path class="cls-3" d="M237,380.71l.95.35a16.16,16.16,0,0,0-.81,3.29c-.86,6.25,4.72,17.87,18.67,16.58V401c-30,4.68-36.34-31.32-38-37.25-1.49-5.25-.86-15.13,2.09-20.86,2.93,10.87,8.28,22.44,16.56,34.42l1.36.11c-.42,1.74-.69,2.81-.8,3.28" transform="translate(-214.41 -85.38)"/><path class="cls-5" d="M245.65,369.21l.58.77c-1.6,1.76-3.39,3.82-5.56,6.27a15.38,15.38,0,0,0-2.68,4.81l-.95-.35c.11-.47.38-1.54.8-3.28s1.09-4.53,1.91-8c2.08-8.86,5.9-.17,5.9-.17" transform="translate(-214.41 -85.38)"/><path class="cls-7" d="M363.12,191.31C361.41,215,352.71,229,343.1,237a45.44,45.44,0,0,1-8.26,5.51,42.56,42.56,0,0,1-15.11,4.65,71.8,71.8,0,0,1-20.34-.77,53.72,53.72,0,0,1-15.68-5.52c-9.11-5-17.65-13.27-24-26.81a94.08,94.08,0,0,1-5.49-15.35c-1.4-5.24-2.77-10.16-3.83-14.86-.35-1.59-.67-3.15-.94-4.69,0,0,37.61-29.55,34.81-46.35,0,0,36.8,44.8,77.6,43.6" transform="translate(-214.41 -85.38)"/><path class="cls-8" d="M250.4,183.85s-6.47-3.43-9.08-.15c-1.53,1.93-1.71,6.2,1.57,14.89a35.2,35.2,0,0,0,2.9,6c4.75,7.79,10.23,8.31,11.61,8.31h.33" transform="translate(-214.41 -85.38)"/><path class="cls-7" d="M299.27,247s2.68,2.09.49,6.14a13.15,13.15,0,0,1-.79,1.23s8,2.11,19.3,6.13c5.77-3.15,11-3.08,18.68-8.24-2.51-2.75-1.58-8.77-1.58-8.77" transform="translate(-214.41 -85.38)"/><path class="cls-8" d="M289.1,164.7s-10.55-5.11-20.61,6.09" transform="translate(-214.41 -85.38)"/><path class="cls-8" d="M324.3,161.9s9-8.75,21.3-.07" transform="translate(-214.41 -85.38)"/><path class="cls-7" d="M253.16,208.62a1.49,1.49,0,1,1,1.32-1.65A1.5,1.5,0,0,1,253.16,208.62Z" transform="translate(-214.41 -85.38)"/><path class="cls-7" d="M250.9,188.54a5.31,5.31,0,0,0-5.56-1.21" transform="translate(-214.41 -85.38)"/><path class="cls-7" d="M358.42,152.58a127,127,0,0,1,4.29,23.75,108.55,108.55,0,0,1,.41,15" transform="translate(-214.41 -85.38)"/><path class="cls-7" d="M302.51,219.16c2.24,1.7,12.2,3.69,19-1.75" transform="translate(-214.41 -85.38)"/><path class="cls-7" d="M307.22,273.47c-1.15-5.12,4.27-11.15,11.09-12.83a18.1,18.1,0,0,1,2-.35v.8l.25,19" transform="translate(-214.41 -85.38)"/><path class="cls-7" d="M298.21,253.12c-3.58,2.12-9.64,11.54-10.22,12.26" transform="translate(-214.41 -85.38)"/><path class="cls-7" d="M352,265.38c-.58-.72-11.42-11-15-13.11" transform="translate(-214.41 -85.38)"/><path class="cls-7" d="M318.73,260.65a5.73,5.73,0,0,1,1.54.44c4.29,1.83,7.56,8.59,6.43,13.61" transform="translate(-214.41 -85.38)"/><path class="cls-8" d="M261.26,401.09c7.14,4.73,20.67,16.08,34.76,27.92,7.48,6.29,15.13,12.72,22.05,18.37" transform="translate(-214.41 -85.38)"/><path class="cls-8" d="M318.07,282.33a75.68,75.68,0,0,0-11-8.63A63.87,63.87,0,0,0,288,265.38c-41-10.16-82,25.75-68.07,77.52,2.93,10.87,8.28,22.44,16.56,34.42" transform="translate(-214.41 -85.38)"/><path class="cls-8" d="M381.06,402.42c-2.86,2-6.64,4.51-11.11,7.5-8.65,5.78-19.85,13.31-31.82,22.06-6.56,4.79-13.34,9.95-20.06,15.4" transform="translate(-214.41 -85.38)"/><path class="cls-8" d="M318.07,282.33c.81-.76,1.63-1.5,2.45-2.22a74.13,74.13,0,0,1,6.47-5,57.25,57.25,0,0,1,25-9.74c39.14-5.08,75.7,34.68,63.59,80.63a86,86,0,0,1-13.28,27.72c-1.45,2.05-4.79,5.47-6.16,7.26" transform="translate(-214.41 -85.38)"/><path class="cls-7" d="M260.34,401.76c-4.53,8.58-7.55,13.22-8.79,18A19.93,19.93,0,0,0,251,423c-.54,6.19-40.8,91.31-34.19,121.25H405.56c6.2-29.94-26.32-112-26.82-118.17a29.13,29.13,0,0,0-.78-4.74A38.05,38.05,0,0,0,372.74,410" transform="translate(-214.41 -85.38)"/><path class="cls-7" d="M251.5,419.77l0,0c6.1,1.76,34.79,10.08,44,9.84" transform="translate(-214.41 -85.38)"/><path class="cls-7" d="M338.17,432c6-1.56,30.9-5.5,38.66-10.4" transform="translate(-214.41 -85.38)"/><path class="cls-7" d="M258.86,400.48c5.31-2.21,20.17-22,20.63-26.3s-3-12.11-6.43-13.9-4.88-1.45-13.43.64c-5.64,1.39-8.62,3.81-13.4,9.06-1.6,1.76-3.39,3.82-5.56,6.27a15.36,15.36,0,0,0-2.68,4.81,16.16,16.16,0,0,0-.81,3.29c-.86,6.25,4.72,17.87,18.67,16.58A24.38,24.38,0,0,0,258.86,400.48Z" transform="translate(-214.41 -85.38)"/><path class="cls-7" d="M245.65,369.21s-3.82-8.69-5.9.17c-.82,3.52-1.45,6.17-1.91,8s-.69,2.81-.8,3.28c-.05.17-.07.26-.07.26" transform="translate(-214.41 -85.38)"/><path class="cls-7" d="M269.81,360.32s-11.56,5.38-13.21,7.91-3,4-3.69,5.15" transform="translate(-214.41 -85.38)"/><path class="cls-7" d="M275.6,364.28c-2.44,1.59-12.34,6.85-14.26,10.57a22,22,0,0,1-4,5.66" transform="translate(-214.41 -85.38)"/><path class="cls-7" d="M278.07,370.33s-7.36,5.77-9.44,8.26-5.44,6.71-5.44,6.71" transform="translate(-214.41 -85.38)"/><path class="cls-7" d="M220.64,341.65a11.65,11.65,0,0,0-.72,1.25c-3,5.73-3.58,15.61-2.09,20.86,1.69,5.93,8.05,41.93,38,37.25" transform="translate(-214.41 -85.38)"/><path class="cls-7" d="M379,401a26,26,0,0,1-4.51-.54c-7.09-1.63-20.16-22-20.63-26.3s3-12.11,6.43-13.9,4.88-1.45,13.43.64c5.4,1.33,8.37,3.61,12.82,8.42,1.74,1.89,3.71,4.16,6.15,6.91a14.89,14.89,0,0,1,2.43,4.16c.09.22.17.45.26.68a16.79,16.79,0,0,1,.79,3.26C397,390.37,391.87,401.37,379,401Z" transform="translate(-214.41 -85.38)"/><path class="cls-7" d="M387.72,369.21s3.83-8.69,5.9.17c1.88,8,1.78,10.92,1.78,10.92" transform="translate(-214.41 -85.38)"/><path class="cls-7" d="M363.56,360.32s11.56,5.38,13.21,7.91,3,4,3.69,5.15" transform="translate(-214.41 -85.38)"/><path class="cls-7" d="M357.77,364.28c2.44,1.59,12.34,6.85,14.26,10.57a22,22,0,0,0,4,5.66" transform="translate(-214.41 -85.38)"/><path class="cls-7" d="M355.3,370.33s7.36,5.77,9.44,8.26,5.44,6.71,5.44,6.71" transform="translate(-214.41 -85.38)"/><path class="cls-7" d="M415.06,345.23c.17.26.33.52.48.79,2.94,5.35,1.53,12.35,0,17.74-1.65,5.79-6.33,40.6-34.41,37.91-.69-.06-1.4-.15-2.12-.26" transform="translate(-214.41 -85.38)"/><path class="cls-7" d="M397.43,380.89a17.8,17.8,0,0,1-9.43,20" transform="translate(-214.41 -85.38)"/><path class="cls-7" d="M283.5,241.5s-19.6,10.8-49.2,6c0,0,21.2-19.1,11.2-42.7" transform="translate(-214.41 -85.38)"/><path class="cls-7" d="M239.9,182.8S224,102.41,293.73,89s81.19,46,85.21,58.8c3.76,12-1.57,63.69,23,78.09,0,0-24.4,22.8-56.4,11.2" transform="translate(-214.41 -85.38)"/><path class="cls-8" d="M272.3,196.7s6-14.4,20.4-6" transform="translate(-214.41 -85.38)"/><path class="cls-8" d="M324,186.8s9-12.77,21.21-1.46" transform="translate(-214.41 -85.38)"/></g></svg>