<svg id="Layer_1" data-name="Layer 1" xmlns="http://www.w3.org/2000/svg" xmlns:xlink="http://www.w3.org/1999/xlink" viewBox="0 0 411.73 514.07"><defs><style>.cls-1,.cls-6,.cls-7,.cls-8,.cls-9{fill:none;}.cls-2{clip-path:url(#clip-path);}.cls-3{fill:#595857;}.cls-4{fill:#fff;}.cls-5{fill:#ea5c67;}.cls-6,.cls-7,.cls-8,.cls-9{stroke:#595857;}.cls-6,.cls-7,.cls-8{stroke-linecap:round;stroke-linejoin:round;}.cls-6,.cls-9{stroke-width:3.35px;}.cls-7{stroke-width:3.96px;}.cls-8{stroke-width:3px;}.cls-9{stroke-miterlimit:10;}</style><clipPath id="clip-path" transform="translate(-48.25 -40.55)"><rect class="cls-1" width="612.28" height="612.28"/></clipPath></defs><title>work-life</title><g class="cls-2"><path class="cls-3" d="M447.82,96.42a5,5,0,0,1,.7,4.53c-1.15,2.93-5.45,4-9.61,2.37s-6.61-5.32-5.47-8.25,5.45-4,9.61-2.37a9.88,9.88,0,0,1,4.77,3.72" transform="translate(-48.25 -40.55)"/><polygon class="cls-4" points="370.87 344.69 380.67 467.99 363.74 485.15 363.74 485.12 363.82 348.46 362.91 348.46 359.34 346.08 370.74 343.97 370.87 344.69"/><path class="cls-3" d="M425.48,90.83a5,5,0,0,1,.69,4.53c-1.15,2.94-5.45,4-9.61,2.37s-6.61-5.32-5.46-8.25,5.44-4,9.6-2.37a10,10,0,0,1,4.78,3.72" transform="translate(-48.25 -40.55)"/><path class="cls-4" d="M419.12,384.5l-.13,0-11.4,2.11,3.57,2.38-23.26-.11-.35.1-2-4.48.57-.05Z" transform="translate(-48.25 -40.55)"/><path class="cls-4" d="M237.15,392.92c-.66,2.57,3.89,4.15,5.88,1.4.16-.15,1.07-2,2.45-5l1.15.13,133-.11,1.28-.49c1.55,3.78,2.83,6.59,3.26,6.92,1.78,1.33,4.33,2,5.49-1.66a37,37,0,0,0-2.07-5.11l.35-.1,23.26.11h.91L412,525.67v0H202.6l11.25-137.44,24.24.53.8.35c-.85,1.83-1.45,3.15-1.74,3.77Z" transform="translate(-48.25 -40.55)"/><path class="cls-5" d="M401.15,117c8,20.72,5.06,38.23-.18,50.08l-1.23-.53C364.48,154.42,352.4,131,331.3,108.85c-1.83-1.93-24.49,57.78-47.55,55.25-18.67-2.06-3.94,31.83,6.74,33.21a5,5,0,0,1,3.62,2.51c2.7,4.56,7.75,14.31,15,22.72-35.93,11.68-49.9,1-48.89,0,9-9.15,11.42-16.91,10-34.67-1.66-21.21-16.87-61.75,20.37-100.25C306.14,71.54,335.93,70.57,355,76c22.45,6.39,36.9,17.06,46.15,41" transform="translate(-48.25 -40.55)"/><path class="cls-4" d="M336.27,165.8a5.2,5.2,0,0,0-4.2-2.43c-3.17,0-5.74,3.38-5.74,7.56s2.57,7.57,5.74,7.57,5.73-3.39,5.73-7.57a8.87,8.87,0,0,0-1.53-5.13m16.79,74.71c-9.76.85-19.19-1.59-28.06-5.42-.62-.27-1.24-.56-1.84-.87a47.82,47.82,0,0,1-14.07-11.68c-7.23-8.41-12.28-18.16-15-22.72a5,5,0,0,0-3.62-2.51c-10.68-1.38-25.41-35.27-6.74-33.21,23.06,2.53,45.72-57.18,47.55-55.25,21.1,22.17,33.18,45.57,68.44,57.73l1.23.53c-.24.54-.48,1.07-.73,1.59a190.5,190.5,0,0,1-3,23.33c-2.55,13-7.11,28-15.16,35.12-.86.75-1.71,1.47-2.56,2.15-9,7.15-17.83,10.46-26.43,11.21m32.28-72.37c-.71-2.39-2.09-4-3.68-4-2.32,0-4.2,3.49-4.2,7.79s1.88,7.79,4.2,7.79,4.21-3.49,4.21-7.79a13.13,13.13,0,0,0-.53-3.78m-20.86,44.54-17.69-1.48c0,8.18,7.43,11.7,11.11,11.31s5.81-4.61,6.58-9.83m-72.3-25.74a3.24,3.24,0,1,0-3.24,3.24,3.23,3.23,0,0,0,3.24-3.24" transform="translate(-48.25 -40.55)"/><path class="cls-4" d="M384.27,365.87a11.25,11.25,0,0,1-2.34.28s-1.41.92-3.78,2.13c-1.23.63-2.72,1.34-4.4,2-.31.14-.62.26-.94.39a22.4,22.4,0,0,1-9.39,1.49c-2.4-.26-2.56-1.06-4.62-1.14-5.76-.22-4.62-.22-4.62-.22l-5-1.47c-13.38-4-49.25-14.86-51.28-17.37l-.13-.3c9-4,21.36-9.87,27.76-13.4L360,349l.05-.21c.27.14,1.2-.25,4.35-2.39,1.74-1.19,3.47-2.28,5.12-3.26,5.23-3.13,9.57-5.21,10.67-6,1.44-1.08,3.56.15,5.1,1.44s5.23,3,8.57,5.2,4.49,2.56,4.83,4.36-1.06,3.22-1.84,4l-.22.25a11.53,11.53,0,0,1,2.85,3.42,4.49,4.49,0,0,1-.6,3.84c-.76.78-1.5,1.68-1.5,1.68l-.07,0a4.6,4.6,0,0,1,.39,1c.21.93-1,2.57-1.42,3.27a1.46,1.46,0,0,1-1.12.69H395a2.61,2.61,0,0,1,0,.54,5.59,5.59,0,0,1-1.76,2.76,29.34,29.34,0,0,1-3.15,1.28l-.92-2.05a7.37,7.37,0,0,1-4.17-1.33,4,4,0,0,1-.73-1.53Z" transform="translate(-48.25 -40.55)"/><path class="cls-5" d="M397.21,192c-3.18,18.51,4.64,25.92,8.71,30.5,0,0-16.59,11.32-26.43,6.77.85-.68,1.7-1.4,2.56-2.15,8-7.07,12.61-22.09,15.16-35.12" transform="translate(-48.25 -40.55)"/><path class="cls-4" d="M378.91,368.76l-.76-.48c2.37-1.21,3.78-2.13,3.78-2.13a11.29,11.29,0,0,0,2.34-.28v0a4,4,0,0,0,.73,1.53,7.36,7.36,0,0,0,4.17,1.33l.92,2.05c-1.13.41-2.3.8-3,1a8.69,8.69,0,0,1-4.5-.08c-.92-.33-1.08-1.44-2.26-2.1-.51-.28-1-.59-1.44-.85" transform="translate(-48.25 -40.55)"/><path class="cls-4" d="M387.55,389a37,37,0,0,1,2.07,5.11c-1.16,3.66-3.71,3-5.49,1.66-.43-.33-1.71-3.14-3.26-6.92-.58-1.39-1.19-2.9-1.81-4.49h0c-1.85-4.68-3.78-9.84-5.09-13.52l-.22-.52c1.68-.69,3.17-1.4,4.4-2l.76.48c1.61,4.34,4.35,10.56,6.65,15.76l2,4.48" transform="translate(-48.25 -40.55)"/><path class="cls-3" d="M385.34,168.14a13.13,13.13,0,0,1,.53,3.78c0,4.3-1.88,7.79-4.21,7.79s-4.2-3.49-4.2-7.79,1.88-7.79,4.2-7.79c1.59,0,3,1.62,3.68,4" transform="translate(-48.25 -40.55)"/><path class="cls-4" d="M368.93,342.19l.56.92c-1.65,1-3.38,2.07-5.12,3.26-.06-.17-.56-1.68-1.41-4.2-5.53-16.45-25.68-75.72-31.87-82.41l.16-.2c3.72,2.94,7.7,6.08,11.17,8.77l-.19.91c3.87,7.34,18.77,49.12,24.46,65.92,1.39,4.12,2.24,6.75,2.24,7" transform="translate(-48.25 -40.55)"/><path class="cls-5" d="M351.88,274.39c1.38,16.07,21.29,37.35,14.92,60.73l-.11,0c-5.69-16.8-20.59-58.58-24.46-65.92l.19-.91c4.54,3.54,8.2,6.33,9.23,7,0-.3,0-.6,0-.9Z" transform="translate(-48.25 -40.55)"/><path class="cls-4" d="M346.79,211.2l17.69,1.48c-.77,5.22-2.9,9.44-6.58,9.83s-11.11-3.13-11.11-11.31" transform="translate(-48.25 -40.55)"/><path class="cls-5" d="M324.25,326l-.61.47C310.48,334.91,281,346.57,281,346.57a11.49,11.49,0,0,1-2.38,1.06,7,7,0,0,1-6.65-1.06,23,23,0,0,1-5.9-3.17,17.47,17.47,0,0,1-2.89-2.72l-.53-.66c-6.94-9.26-2-23.27,2.09-30.74,11.07-20.12,29.83-45.09,38.42-52a56.88,56.88,0,0,1,15-8.17s6.08,4.86,13.09,10.41l-.16.2c6.19,6.69,26.34,66,31.87,82.41l-.8,0-3.36,6.06c1.65-.78.86.32,1.22.51l0,.21-34.42-10.68c2.7-1.5,4.35-2.58,4.22-2.94a29.6,29.6,0,0,0-5.52-9.38" transform="translate(-48.25 -40.55)"/><path class="cls-4" d="M351.32,258.1s9,16.18,4.44,19c0,0-2.33-5.87-3.55-7.2h-.38c0-4.43-.36-7.61-.84-8.09l-.63-.75c.53,0,.77-.32.63-1s-.26-1.26-.39-1.81Z" transform="translate(-48.25 -40.55)"/><path class="cls-4" d="M351,261.76c.48.48.85,3.66.84,8.09,0,1.4,0,2.92-.13,4.53,0,.3,0,.6-.05.9-1-.62-4.69-3.41-9.23-7-3.47-2.69-7.45-5.83-11.17-8.77-7-5.55-13.09-10.41-13.09-10.41.32-.12-.23-2.29-.2-2.69a10.57,10.57,0,0,1,1.91-5.4c.79-1.21,1.57-2.05,2-1.36.1.18.2.26.31.27,5.19,4.52,24.38,21,28.21,21Z" transform="translate(-48.25 -40.55)"/><path class="cls-4" d="M351,260c.14.71-.1,1-.63,1-3.83,0-23-16.52-28.21-21,.83.12,1.73-4.23,1-5.75.6.31,1.22.6,1.84.87,8.87,3.83,18.3,6.27,28.06,5.42-4.06,11.87-3.43,13.55-2.46,17.66.13.55.26,1.15.39,1.81" transform="translate(-48.25 -40.55)"/><path class="cls-5" d="M349.2,369.36l-.05,1.47c-1.29,3.61-5,10.72-3.92,13.3v.57l-78-.23v-.34c3.44-8.87,9.58-15.69,11.48-20.91.92-2.52.15-15,.15-15l-.2-.62a11.55,11.55,0,0,0,2.38-1.06s3.34,10.55,6.68,9.4c1.53-.52,5.35-2.15,10.11-4.28l.13.3c2,2.51,37.9,13.38,51.28,17.37" transform="translate(-48.25 -40.55)"/><path class="cls-3" d="M336.27,165.8a8.87,8.87,0,0,1,1.53,5.13c0,4.18-2.57,7.57-5.73,7.57s-5.74-3.39-5.74-7.57,2.57-7.56,5.74-7.56a5.2,5.2,0,0,1,4.2,2.43" transform="translate(-48.25 -40.55)"/><path class="cls-4" d="M325.55,338.29c-6.4,3.53-18.75,9.36-27.76,13.4-4.76,2.13-8.58,3.76-10.11,4.28-3.34,1.15-6.68-9.4-6.68-9.4s29.48-11.66,42.64-20.13l.61-.47a29.57,29.57,0,0,1,5.52,9.38c.13.36-1.52,1.44-4.22,2.94" transform="translate(-48.25 -40.55)"/><path class="cls-4" d="M288.94,183.71a3.24,3.24,0,1,1-3.23,3.23,3.23,3.23,0,0,1,3.23-3.23" transform="translate(-48.25 -40.55)"/><path class="cls-4" d="M263.18,340.68a17.47,17.47,0,0,0,2.89,2.72s-11.46,25.89-18.22,40.75l-2.37,5.17c-1.38,3-2.29,4.85-2.45,5-2,2.75-6.54,1.17-5.88-1.4h0c.29-.62.89-1.94,1.74-3.77.56-1.23,1.23-2.68,2-4.31l20-43.58,1.74-1.23.53.66" transform="translate(-48.25 -40.55)"/><path class="cls-4" d="M240,384.43l.89.4c-.74,1.63-1.41,3.08-2,4.31l-.8-.35-24.24-.53,5.36-1.58-2-2.68Z" transform="translate(-48.25 -40.55)"/><path class="cls-3" d="M192.48,128.9a3.09,3.09,0,0,1,.36,1.53,4.24,4.24,0,0,1-.59,2.14,4,4,0,0,1-1.68,1.58,6.4,6.4,0,0,1-2.88.55,7.31,7.31,0,0,1-2.75-.41,4,4,0,0,1-1.66-1.2,5.42,5.42,0,0,1-1-2l3.55-.47a2.8,2.8,0,0,0,.65,1.49,1.59,1.59,0,0,0,1.12.41,1.53,1.53,0,0,0,1.19-.52,2,2,0,0,0,.47-1.4,1.93,1.93,0,0,0-.45-1.37,1.62,1.62,0,0,0-1.25-.49,4.55,4.55,0,0,0-1.15.21l.19-2.54a3,3,0,0,0,.46,0,1.6,1.6,0,0,0,1.16-.44,1.42,1.42,0,0,0,.47-1,1.28,1.28,0,0,0-.35-.94,1.3,1.3,0,0,0-1-.35,1.41,1.41,0,0,0-1,.38,2.32,2.32,0,0,0-.53,1.33l-3.36-.6a4.24,4.24,0,0,1,1.61-2.46,5.73,5.73,0,0,1,3.37-.85,5.65,5.65,0,0,1,3.62.93,2.93,2.93,0,0,1,1.11,2.35,2.65,2.65,0,0,1-.45,1.5,3.93,3.93,0,0,1-1.37,1.17,4.13,4.13,0,0,1,1.14.43,2.69,2.69,0,0,1,1,1" transform="translate(-48.25 -40.55)"/><path class="cls-5" d="M136.86,52.63a77.5,77.5,0,0,1-4.56,154.28c-1.61.11-3.24.16-4.88.16-.88,0-1.76,0-2.63,0A77.5,77.5,0,1,1,136.86,52.63m60.08,76.93a69.51,69.51,0,1,0-69.52,69.52,69.52,69.52,0,0,0,69.52-69.52" transform="translate(-48.25 -40.55)"/><path class="cls-4" d="M128.13,126.76a4.26,4.26,0,0,0,.07,8.52,4.16,4.16,0,0,0,2.08-.55,4.26,4.26,0,0,0-2.08-8Zm-.71-66.71a69.51,69.51,0,1,1-69.51,69.51,69.52,69.52,0,0,1,69.51-69.51m65.42,70.38a3.09,3.09,0,0,0-.36-1.53,2.69,2.69,0,0,0-1-1,4.13,4.13,0,0,0-1.14-.43,3.93,3.93,0,0,0,1.37-1.17,2.65,2.65,0,0,0,.45-1.5,2.93,2.93,0,0,0-1.11-2.35,5.65,5.65,0,0,0-3.62-.93,5.73,5.73,0,0,0-3.37.85,4.24,4.24,0,0,0-1.61,2.46l3.36.6a2.32,2.32,0,0,1,.53-1.33,1.41,1.41,0,0,1,1-.38,1.3,1.3,0,0,1,1,.35,1.28,1.28,0,0,1,.35.94,1.42,1.42,0,0,1-.47,1,1.6,1.6,0,0,1-1.16.44,3,3,0,0,1-.46,0l-.19,2.54a4.55,4.55,0,0,1,1.15-.21,1.62,1.62,0,0,1,1.25.49,1.93,1.93,0,0,1,.45,1.37,2,2,0,0,1-.47,1.4,1.53,1.53,0,0,1-1.19.52,1.59,1.59,0,0,1-1.12-.41,2.8,2.8,0,0,1-.65-1.49l-3.55.47a5.42,5.42,0,0,0,1,2,4,4,0,0,0,1.66,1.2,7.31,7.31,0,0,0,2.75.41,6.4,6.4,0,0,0,2.88-.55,4,4,0,0,0,1.68-1.58,4.24,4.24,0,0,0,.59-2.14M137.27,78V75.14h-5.54a10.73,10.73,0,0,1,.85-.78c.24-.19.71-.54,1.43-1A9.51,9.51,0,0,0,136.5,71a4.1,4.1,0,0,0,.68-2.23,3.45,3.45,0,0,0-.6-2A3.55,3.55,0,0,0,135,65.46a7.79,7.79,0,0,0-2.77-.42H132a7.1,7.1,0,0,0-2.81.45,3.53,3.53,0,0,0-1.57,1.29,5.54,5.54,0,0,0-.77,2.34l3.56.28a2.5,2.5,0,0,1,.58-1.5,1.47,1.47,0,0,1,1.11-.43,1.53,1.53,0,0,1,1.08.41,1.33,1.33,0,0,1,.43,1,2,2,0,0,1-.43,1.14,10.35,10.35,0,0,1-2,1.76,15.15,15.15,0,0,0-3.48,3.29,6.58,6.58,0,0,0-1.11,3Zm-7.19,106.53,3.53-.43a4.48,4.48,0,0,0-.89-1.71,3.7,3.7,0,0,0-1.47-1,6.54,6.54,0,0,0-2.41-.36,5.16,5.16,0,0,0-4,1.61q-1.46,1.61-1.46,5.07a8.71,8.71,0,0,0,.7,3.8,4.57,4.57,0,0,0,1.85,2.08,6.2,6.2,0,0,0,3.08.66,5.82,5.82,0,0,0,2.65-.54,4,4,0,0,0,1.66-1.58,4.67,4.67,0,0,0,.59-2.31,4.28,4.28,0,0,0-1.18-3.1,3.86,3.86,0,0,0-2.67-1.21ZM123,78V65h-2.94a5.78,5.78,0,0,1-1.57,2,8.65,8.65,0,0,1-2.81,1.4v2.91a13.32,13.32,0,0,0,2-.78,10.91,10.91,0,0,0,1.69-1.07V78Zm-50.6,50a8.63,8.63,0,0,0-.7-3.79,4.5,4.5,0,0,0-1.85-2.09,6.19,6.19,0,0,0-3.07-.66,5.9,5.9,0,0,0-2.65.53,3.92,3.92,0,0,0-1.66,1.59,4.55,4.55,0,0,0-.6,2.31A4.24,4.24,0,0,0,63.07,129a3.89,3.89,0,0,0,2.67,1.21l-.05,1-3.53.45a4.75,4.75,0,0,0,.9,1.7,3.76,3.76,0,0,0,1.46,1,6.79,6.79,0,0,0,2.41.35,5.13,5.13,0,0,0,4-1.61q1.46-1.61,1.46-5.06" transform="translate(-48.25 -40.55)"/><path class="cls-3" d="M137.27,75.14V78H126.62a6.58,6.58,0,0,1,1.11-3,15.15,15.15,0,0,1,3.48-3.29,10.35,10.35,0,0,0,2-1.76,2,2,0,0,0,.43-1.14,1.33,1.33,0,0,0-.43-1,1.53,1.53,0,0,0-1.08-.41l.05-2.43a7.79,7.79,0,0,1,2.77.42,3.55,3.55,0,0,1,1.63,1.32,3.45,3.45,0,0,1,.6,2A4.1,4.1,0,0,1,136.5,71,9.51,9.51,0,0,1,134,73.33c-.72.49-1.19.84-1.43,1a10.74,10.74,0,0,0-.85.78Z" transform="translate(-48.25 -40.55)"/><path class="cls-5" d="M136.92,52.06l-.06.57a78.09,78.09,0,0,0-19.85.13l-.21-1.48c3.1-12.11,17-12.31,20.12.78" transform="translate(-48.25 -40.55)"/><path class="cls-3" d="M133.61,184.13l-3.53.43a1.9,1.9,0,0,0-.46-1,1.12,1.12,0,0,0-.81-.31,1.47,1.47,0,0,0-1.34.87,7.69,7.69,0,0,0-.52,2.69,4.67,4.67,0,0,1,1.31-1,3.76,3.76,0,0,1,1.55-.31H130a3.86,3.86,0,0,1,2.67,1.21,4.28,4.28,0,0,1,1.18,3.1,4.67,4.67,0,0,1-.59,2.31,4,4,0,0,1-1.66,1.58,5.82,5.82,0,0,1-2.65.54,6.2,6.2,0,0,1-3.08-.66,4.57,4.57,0,0,1-1.85-2.08,8.71,8.71,0,0,1-.7-3.8q0-3.46,1.46-5.07a5.16,5.16,0,0,1,4-1.61,6.54,6.54,0,0,1,2.41.36,3.7,3.7,0,0,1,1.47,1,4.48,4.48,0,0,1,.89,1.71m-3.56,7.37a2.33,2.33,0,0,0,.47-1.58,2.48,2.48,0,0,0-.49-1.65,1.54,1.54,0,0,0-1.21-.57,1.58,1.58,0,0,0-1.24.55,2.23,2.23,0,0,0-.51,1.57,2.34,2.34,0,0,0,.53,1.62,1.62,1.62,0,0,0,1.28.59,1.5,1.5,0,0,0,1.17-.53" transform="translate(-48.25 -40.55)"/><path class="cls-5" d="M132.38,208.19V552.44l-7.65.5V208.68l.06-1.66c.87,0,1.75,0,2.63,0,1.64,0,3.27,0,4.88-.16Z" transform="translate(-48.25 -40.55)"/><path class="cls-3" d="M132.18,65l-.05,2.43a1.47,1.47,0,0,0-1.11.43,2.5,2.5,0,0,0-.58,1.5l-3.56-.28a5.54,5.54,0,0,1,.77-2.34,3.53,3.53,0,0,1,1.57-1.29A7.1,7.1,0,0,1,132,65Z" transform="translate(-48.25 -40.55)"/><path class="cls-3" d="M132.46,131a4.24,4.24,0,0,1-2.18,3.71L128.2,131l-.07-4.26h.07a4.26,4.26,0,0,1,4.26,4.26" transform="translate(-48.25 -40.55)"/><path class="cls-3" d="M128.2,131l2.08,3.71a4.16,4.16,0,0,1-2.08.55,4.26,4.26,0,0,1-.07-8.52Z" transform="translate(-48.25 -40.55)"/><path class="cls-4" d="M130.52,189.92a2.33,2.33,0,0,1-.47,1.58,1.5,1.5,0,0,1-1.17.53,1.62,1.62,0,0,1-1.28-.59,2.34,2.34,0,0,1-.53-1.62,2.23,2.23,0,0,1,.51-1.57,1.58,1.58,0,0,1,1.24-.55,1.54,1.54,0,0,1,1.21.57,2.48,2.48,0,0,1,.49,1.65" transform="translate(-48.25 -40.55)"/><path class="cls-4" d="M130.08,184.56l-.05,1h-.22a3.76,3.76,0,0,0-1.55.31,4.67,4.67,0,0,0-1.31,1,7.69,7.69,0,0,1,.52-2.69,1.47,1.47,0,0,1,1.34-.87,1.12,1.12,0,0,1,.81.31,1.9,1.9,0,0,1,.46,1" transform="translate(-48.25 -40.55)"/><path class="cls-3" d="M123,65V78h-3.59V69.52a10.91,10.91,0,0,1-1.69,1.07,13.32,13.32,0,0,1-2,.78V68.46a8.65,8.65,0,0,0,2.81-1.4,5.78,5.78,0,0,0,1.57-2Z" transform="translate(-48.25 -40.55)"/><path class="cls-3" d="M71.72,124.24a8.63,8.63,0,0,1,.7,3.79q0,3.45-1.46,5.06a5.13,5.13,0,0,1-4,1.61,6.79,6.79,0,0,1-2.41-.35,3.76,3.76,0,0,1-1.46-1,4.75,4.75,0,0,1-.9-1.7l3.53-.45a1.87,1.87,0,0,0,.47,1.05,1.16,1.16,0,0,0,.81.3,1.46,1.46,0,0,0,1.33-.86,7.86,7.86,0,0,0,.53-2.69,4.67,4.67,0,0,1-1.31,1,3.79,3.79,0,0,1-1.55.3h-.23A3.89,3.89,0,0,1,63.07,129a4.24,4.24,0,0,1-1.18-3.09,4.55,4.55,0,0,1,.6-2.31A3.92,3.92,0,0,1,64.15,122a5.9,5.9,0,0,1,2.65-.53,6.19,6.19,0,0,1,3.07.66,4.5,4.5,0,0,1,1.85,2.09m-3.52,3.24a2.23,2.23,0,0,0,.5-1.56,2.35,2.35,0,0,0-.53-1.63,1.65,1.65,0,0,0-1.27-.59,1.5,1.5,0,0,0-1.17.53,2.39,2.39,0,0,0-.47,1.6,2.43,2.43,0,0,0,.49,1.64A1.5,1.5,0,0,0,67,128a1.6,1.6,0,0,0,1.25-.55" transform="translate(-48.25 -40.55)"/><path class="cls-4" d="M68.7,125.92a2.23,2.23,0,0,1-.5,1.56A1.6,1.6,0,0,1,67,128a1.5,1.5,0,0,1-1.2-.56,2.43,2.43,0,0,1-.49-1.64,2.39,2.39,0,0,1,.47-1.6,1.5,1.5,0,0,1,1.17-.53,1.65,1.65,0,0,1,1.27.59,2.35,2.35,0,0,1,.53,1.63" transform="translate(-48.25 -40.55)"/><path class="cls-4" d="M68.83,129a7.86,7.86,0,0,1-.53,2.69,1.46,1.46,0,0,1-1.33.86,1.16,1.16,0,0,1-.81-.3,1.87,1.87,0,0,1-.47-1l.05-1H66a3.79,3.79,0,0,0,1.55-.3,4.67,4.67,0,0,0,1.31-1" transform="translate(-48.25 -40.55)"/><path class="cls-6" d="M278.82,348.25s.77,12.45-.15,15c-1.9,5.22-8,12-11.48,20.91" transform="translate(-48.25 -40.55)"/><path class="cls-6" d="M292.18,186.94a3.24,3.24,0,1,1-3.24-3.23A3.24,3.24,0,0,1,292.18,186.94Z" transform="translate(-48.25 -40.55)"/><path class="cls-7" d="M335.27,166.58a6.34,6.34,0,0,0,1-.78,4.16,4.16,0,0,0,1.44-4.57" transform="translate(-48.25 -40.55)"/><path class="cls-7" d="M383.61,169.72a6.58,6.58,0,0,0,1.73-1.58,4,4,0,0,0,.71-3.77" transform="translate(-48.25 -40.55)"/><line class="cls-6" x1="316.23" y1="159.31" x2="318.55" y2="157.96"/><path class="cls-6" d="M364.48,212.68l-17.69-1.48c0,8.18,7.43,11.7,11.11,11.31S363.71,217.9,364.48,212.68Z" transform="translate(-48.25 -40.55)"/><path class="cls-6" d="M337.59,136.28c-4.07-3.29-8.94-.82-11,2.23" transform="translate(-48.25 -40.55)"/><path class="cls-6" d="M379.49,136.07c3.63-3.29,8-.82,9.84,2.23" transform="translate(-48.25 -40.55)"/><path class="cls-6" d="M309.09,222.54c-35.93,11.68-49.9,1-48.89,0,9-9.15,11.42-16.91,10-34.67-1.66-21.21-16.87-61.75,20.37-100.25C306.14,71.54,335.93,70.57,355,76c22.45,6.39,36.9,17.06,46.15,41,8,20.72,5.06,38.23-.18,50.08-.24.54-.48,1.07-.73,1.59a190.5,190.5,0,0,1-3,23.33c-2.55,13-7.11,28-15.16,35.12-.86.75-1.71,1.47-2.56,2.15-9,7.15-17.83,10.46-26.43,11.21-9.76.85-19.19-1.59-28.06-5.42-.62-.27-1.24-.56-1.84-.87a47.82,47.82,0,0,1-14.07-11.68c-7.23-8.41-12.28-18.16-15-22.72a5,5,0,0,0-3.62-2.51c-10.68-1.38-25.41-35.27-6.74-33.21,23.06,2.53,45.72-57.18,47.55-55.25,21.1,22.17,33.18,45.57,68.44,57.73" transform="translate(-48.25 -40.55)"/><path class="cls-6" d="M397.21,192c-3.18,18.51,4.64,25.92,8.71,30.5,0,0-16.59,11.32-26.43,6.77" transform="translate(-48.25 -40.55)"/><path class="cls-6" d="M323.16,234.22c.72,1.52-.18,5.87-1,5.75-.11,0-.21-.09-.31-.27-.4-.69-1.18.15-2,1.36a10.57,10.57,0,0,0-1.91,5.4c0,.4.52,2.57.2,2.69a56.88,56.88,0,0,0-15,8.17c-8.59,6.87-27.35,31.84-38.42,52-4.11,7.47-9,21.48-2.09,30.74l.53.66a17.47,17.47,0,0,0,2.89,2.72,23,23,0,0,0,5.9,3.17,7,7,0,0,0,6.65,1.06,11.55,11.55,0,0,0,2.38-1.06s3.34,10.55,6.68,9.4c1.53-.52,5.35-2.15,10.11-4.28,9-4,21.36-9.87,27.76-13.4,2.7-1.5,4.35-2.58,4.22-2.94a29.58,29.58,0,0,0-5.52-9.38,12.8,12.8,0,0,0-4-3.27c-2.92-1.28,13.35-19.19,16.45-28.74" transform="translate(-48.25 -40.55)"/><path class="cls-6" d="M281,346.57s29.48-11.66,42.64-20.13" transform="translate(-48.25 -40.55)"/><path class="cls-6" d="M321.84,239.7l.31.27c5.19,4.52,24.38,21,28.21,21,.53,0,.77-.32.63-1s-.26-1.26-.39-1.81c-1-4.11-1.6-5.79,2.46-17.66h0" transform="translate(-48.25 -40.55)"/><path class="cls-6" d="M351.88,274.39c1.38,16.07,21.29,37.35,14.92,60.73" transform="translate(-48.25 -40.55)"/><polyline class="cls-8" points="311.72 308.42 277.3 297.74 276.95 297.63"/><path class="cls-8" d="M297.92,352c2,2.51,37.9,13.38,51.28,17.37l5,1.47" transform="translate(-48.25 -40.55)"/><path class="cls-6" d="M342.23,269.24c3.87,7.34,18.77,49.12,24.46,65.92,1.39,4.12,2.24,6.75,2.24,7" transform="translate(-48.25 -40.55)"/><path class="cls-6" d="M331.09,259.76c6.19,6.69,26.34,66,31.87,82.41.85,2.52,1.35,4,1.41,4.2" transform="translate(-48.25 -40.55)"/><path class="cls-6" d="M374,370.83c1.31,3.68,3.24,8.84,5.09,13.52h0c.62,1.59,1.23,3.1,1.81,4.49,1.55,3.78,2.83,6.59,3.26,6.92,1.78,1.33,4.33,2,5.49-1.66a37,37,0,0,0-2.07-5.11l-2-4.48c-2.3-5.2-5-11.42-6.65-15.76l-.15-.4" transform="translate(-48.25 -40.55)"/><path class="cls-6" d="M237.15,392.92c-.66,2.57,3.89,4.15,5.88,1.4.16-.15,1.07-2,2.45-5l2.37-5.17c6.76-14.86,18.22-40.75,18.22-40.75" transform="translate(-48.25 -40.55)"/><path class="cls-6" d="M237,393.31v0a.75.75,0,0,1,.05-.11,2.07,2.07,0,0,1,.11-.24" transform="translate(-48.25 -40.55)"/><path class="cls-6" d="M260.91,341.25l-20.05,43.58c-.74,1.63-1.41,3.08-2,4.31-.85,1.83-1.45,3.15-1.74,3.77h0" transform="translate(-48.25 -40.55)"/><polyline class="cls-6" points="339.65 348.35 362.91 348.46 363.82 348.46 363.74 485.12 363.74 485.15 154.35 485.15 165.6 347.71 189.84 348.24"/><line class="cls-6" x1="198.38" y1="348.9" x2="331.34" y2="348.79"/><line class="cls-6" x1="380.67" y1="467.99" x2="370.87" y2="344.69"/><line class="cls-6" x1="363.74" y1="485.15" x2="380.67" y2="467.99"/><path class="cls-6" d="M349.15,370.83c-1.29,3.61-5,10.72-3.92,13.3" transform="translate(-48.25 -40.55)"/><line class="cls-6" x1="313.91" y1="301.64" x2="310.55" y2="307.7"/><polyline class="cls-6" points="386.27 27.12 377.23 50.28 376.14 53.06"/><polyline class="cls-6" points="410.06 28.99 399.57 55.87 398.49 58.64"/><line class="cls-6" x1="386.99" y1="26.97" x2="410.06" y2="28.99"/><path class="cls-6" d="M136.86,52.63a77.5,77.5,0,0,1-4.56,154.28c-1.61.11-3.24.16-4.88.16-.88,0-1.76,0-2.63,0A77.5,77.5,0,1,1,136.86,52.63Z" transform="translate(-48.25 -40.55)"/><circle class="cls-6" cx="79.18" cy="89.02" r="69.51"/><polyline class="cls-6" points="116.16 38.29 115.88 38.51 110.94 43"/><polyline class="cls-6" points="134.35 61.57 134.02 61.71 128.09 64.77"/><polyline class="cls-6" points="43.96 36.56 44.24 36.82 48.91 41.94"/><polyline class="cls-6" points="24.18 61.57 24.53 61.71 30.88 64.77"/><polyline class="cls-6" points="110.94 142.98 110.69 142.71 106.49 137.11"/><polyline class="cls-6" points="134.07 118.23 133.77 118.04 128.36 113.87"/><polyline class="cls-6" points="43.31 141.76 43.61 141.52 48.9 136.57"/><polyline class="cls-6" points="22.44 116.05 22.8 115.9 29.15 112.53"/><polyline class="cls-9" points="79.95 90.47 82.03 94.18 100.5 127.14"/><polyline class="cls-9" points="79.95 90.47 79.88 86.21 79.17 42.19"/><path class="cls-6" d="M116.8,51.28c3.1-12.11,17-12.31,20.12.78" transform="translate(-48.25 -40.55)"/><polyline class="cls-6" points="76.48 168.13 76.48 512.39 84.13 511.89 84.13 167.64"/><polyline class="cls-6" points="168.95 343.45 170.96 346.13 165.6 347.71"/><polyline class="cls-6" points="191.72 343.88 168.95 343.45 168.74 343.45"/><polyline class="cls-6" points="329.68 344.25 296.98 344.15 218.94 343.92 200.66 343.78"/><polyline class="cls-6" points="363.71 348.99 362.91 348.46 359.34 346.08 370.74 343.97 370.87 343.95 337.88 343.92"/><path class="cls-6" d="M318.16,249.15s6.08,4.86,13.09,10.41c3.72,2.94,7.7,6.08,11.17,8.77,4.54,3.54,8.2,6.33,9.23,6.95,0-.3,0-.6,0-.9.09-1.61.13-3.13.13-4.53,0-4.43-.36-7.61-.84-8.09" transform="translate(-48.25 -40.55)"/><path class="cls-6" d="M351.32,258.1s9,16.18,4.44,19c0,0-2.33-5.87-3.55-7.2" transform="translate(-48.25 -40.55)"/><path class="cls-6" d="M358.8,348.25c1.65-.78.86.32,1.22.51s1.2-.25,4.35-2.39c1.74-1.19,3.47-2.28,5.12-3.26,5.23-3.13,9.57-5.21,10.67-6,1.44-1.08,3.56.15,5.1,1.44s5.23,3,8.57,5.2,4.49,2.56,4.83,4.36-1.06,3.22-1.84,3.95" transform="translate(-48.25 -40.55)"/><path class="cls-6" d="M381,342.34a3.35,3.35,0,0,1,4-.24c2.19,1.4,2.51,3,3.34,3.66a47.92,47.92,0,0,0,5.86,4.69,28.71,28.71,0,0,1,2.39,1.83h0a11.51,11.51,0,0,1,2.85,3.42,4.49,4.49,0,0,1-.6,3.84c-.76.78-1.5,1.68-1.5,1.68" transform="translate(-48.25 -40.55)"/><path class="cls-6" d="M384.91,348.55a9.14,9.14,0,0,0,2.09,2.83,28.6,28.6,0,0,1,5.89,4.39,23.57,23.57,0,0,1,4.39,5.5,4.67,4.67,0,0,1,.39,1c.21.93-.95,2.57-1.42,3.27a1.46,1.46,0,0,1-1.12.69" transform="translate(-48.25 -40.55)"/><path class="cls-6" d="M386.72,356.91a10.58,10.58,0,0,0,1.7,2.39,43.26,43.26,0,0,1,4.74,3.42,5.48,5.48,0,0,1,1.82,3.5,2.61,2.61,0,0,1,0,.54,5.59,5.59,0,0,1-1.76,2.76,29.54,29.54,0,0,1-3.15,1.28c-1.13.41-2.3.8-3,1a8.69,8.69,0,0,1-4.5-.08c-.92-.33-1.08-1.44-2.26-2.1-.51-.28-1-.59-1.44-.85l-.76-.48-.18-.11" transform="translate(-48.25 -40.55)"/><path class="cls-6" d="M387.58,364.47a6.49,6.49,0,0,1-2.84,1.31l-.47.09a11.3,11.3,0,0,1-2.34.28s-1.41.92-3.78,2.13c-1.23.63-2.72,1.34-4.4,2-.31.14-.62.26-.94.39a22.41,22.41,0,0,1-9.39,1.49c-2.4-.26-2.56-1.06-4.62-1.14-5.76-.22-4.62-.22-4.62-.22" transform="translate(-48.25 -40.55)"/><path class="cls-6" d="M384.27,365.89a4,4,0,0,0,.73,1.53,7.37,7.37,0,0,0,4.17,1.33,5.28,5.28,0,0,0,.8-.06" transform="translate(-48.25 -40.55)"/></g></svg>