<svg xmlns="http://www.w3.org/2000/svg" viewBox="0 0 350 350"><defs><style>.cls-1{fill:#ea5c67;}</style></defs><title>Asset 1</title><g id="Layer_2" data-name="Layer 2"><g id="レイヤー_1" data-name="レイヤー 1"><g id="ロゴタイプ"><path class="cls-1" d="M0,346.65V278c0-14.74,9.11-24.65,22.91-24.65S46,263.31,46,278v68.6a1.7,1.7,0,0,1-1.88,1.88H35.64a1.76,1.76,0,0,1-1.87-1.88V316.9H12.06v29.75a1.66,1.66,0,0,1-1.74,1.88H1.74A1.66,1.66,0,0,1,0,346.65Zm33.77-40.87V277.51c0-8-3.89-12.73-10.86-12.73s-10.85,4.69-10.85,12.73v28.27Z"/><path class="cls-1" d="M55.95,328V301.76c.13-12.73,8.44-21.57,21.3-21.57,12.59-.13,21.44,8.84,21.44,21.17,0,11.79-8.57,20.23-21.3,20.23H67.47v7c0,6.16,3.62,10.45,9.78,10.45,5.49,0,9.11-4,9.51-9.92a1.72,1.72,0,0,1,1.87-1.75h7.91a1.62,1.62,0,0,1,1.74,1.75c-.67,12.46-9.11,20.77-21.17,20.77C64.52,349.87,55.95,341.16,55.95,328Zm21.44-16.88c6.17,0,9.78-3.88,9.78-9.51,0-6.43-3.75-10.58-9.91-10.58s-9.78,4.15-9.78,10.58v9.51Z"/><path class="cls-1" d="M108.67,346.65V304.71c0-14.47,9.38-23.45,22.91-23.45h5a1.66,1.66,0,0,1,1.74,1.88v7.24a1.62,1.62,0,0,1-1.74,1.74h-4.82c-7,0-11.52,4.42-11.52,11.66v42.87a1.7,1.7,0,0,1-1.88,1.88h-7.77A1.7,1.7,0,0,1,108.67,346.65Z"/><path class="cls-1" d="M157.71,281.53a1.7,1.7,0,0,1,1.88,1.88v45.15c0,6.3,3.49,10.58,9.38,10.58s9.38-4.28,9.38-10.58V283.41a1.7,1.7,0,0,1,1.88-1.88H188a1.7,1.7,0,0,1,1.89,1.88v44.75c0,12.73-8.45,21.84-20.91,21.84s-20.9-9.11-20.9-21.84V283.41a1.7,1.7,0,0,1,1.88-1.88Z"/><path class="cls-1" d="M197.92,342.36a7.24,7.24,0,0,1,7.5-7.5,7.35,7.35,0,0,1,7.63,7.5,7.44,7.44,0,0,1-7.63,7.51A7.33,7.33,0,0,1,197.92,342.36Z"/><path class="cls-1" d="M295.73,301.9v44.75a1.66,1.66,0,0,1-1.74,1.88h-7.77a1.7,1.7,0,0,1-1.88-1.88V301.5c0-6.3-3.08-10.45-8.71-10.45s-8.85,4.15-8.85,10.45v45.15a1.66,1.66,0,0,1-1.74,1.88h-7.77a1.7,1.7,0,0,1-1.88-1.88V301.5c0-6.3-3.08-10.45-8.71-10.45s-8.85,4.15-8.85,10.45v45.15a1.7,1.7,0,0,1-1.87,1.88h-7.63a1.7,1.7,0,0,1-1.87-1.88V301.9c0-12.73,8-21.84,20.23-21.84a17.17,17.17,0,0,1,14.47,8.17,17,17,0,0,1,14.47-8.17C287.83,280.06,295.73,289.17,295.73,301.9Z"/><path class="cls-1" d="M307.26,328V301.76c.13-12.73,8.44-21.57,21.3-21.57,12.6-.13,21.44,8.84,21.44,21.17,0,11.79-8.57,20.23-21.3,20.23h-9.92v7c0,6.16,3.62,10.45,9.78,10.45,5.49,0,9.11-4,9.51-9.92a1.72,1.72,0,0,1,1.88-1.75h7.9a1.62,1.62,0,0,1,1.75,1.75c-.67,12.46-9.11,20.77-21.17,20.77C315.84,349.87,307.26,341.16,307.26,328Zm21.44-16.88c6.16,0,9.78-3.88,9.78-9.51,0-6.43-3.75-10.58-9.91-10.58s-9.78,4.15-9.78,10.58v9.51Z"/></g><g id="ロゴマーク"><path class="cls-1" d="M276.27,202.55a92.72,92.72,0,0,1-60-22,82.71,82.71,0,0,0,30-30,8.1,8.1,0,0,0-14-8.13,66.55,66.55,0,0,1-27.89,26.14A93.12,93.12,0,0,1,276.27,16.2a8.1,8.1,0,0,0,0-16.2A109.53,109.53,0,0,0,175,68.13,109.53,109.53,0,0,0,73.73,0a8.1,8.1,0,0,0,0,16.2,93.13,93.13,0,0,1,71.88,152.39,66.54,66.54,0,0,1-27.89-26.14,8.1,8.1,0,1,0-14,8.13,82.67,82.67,0,0,0,30,30,92.74,92.74,0,0,1-60,22,8.1,8.1,0,0,0,0,16.2,109,109,0,0,0,76.18-31,80.9,80.9,0,0,0,50.19,0,109,109,0,0,0,76.17,31,8.1,8.1,0,0,0,0-16.2Zm-114.5-28.37A109.24,109.24,0,0,0,175,150.62a109.32,109.32,0,0,0,13.23,23.56,65,65,0,0,1-26.46,0Z"/><ellipse class="cls-1" cx="115.59" cy="93.37" rx="8.72" ry="13.58"/><ellipse class="cls-1" cx="234.41" cy="93.37" rx="8.72" ry="13.58"/></g></g></g></svg>