<svg xmlns="http://www.w3.org/2000/svg" viewBox="0 0 690 180"><defs><style>.cls-1{fill:#fff;}</style></defs><title>Asset 1</title><g id="Layer_2" data-name="Layer 2"><g id="レイヤー_1" data-name="レイヤー 1"><g id="ロゴタイプ"><path class="cls-1" d="M255.24,145.84V60.63C255.24,42.32,266.56,30,283.7,30s28.63,12.32,28.63,30.63v85.21a2.11,2.11,0,0,1-2.33,2.33H299.51a2.18,2.18,0,0,1-2.33-2.33V108.89h-27v36.95a2.06,2.06,0,0,1-2.16,2.33H257.41A2.07,2.07,0,0,1,255.24,145.84Zm41.94-50.76V60c0-10-4.83-15.82-13.48-15.82-8.48,0-13.48,5.83-13.48,15.82V95.08Z"/><path class="cls-1" d="M324.73,122.7V90.08c.16-15.81,10.49-26.79,26.46-26.79,15.64-.16,26.63,11,26.63,26.29,0,14.65-10.65,25.13-26.46,25.13H339v8.65c0,7.66,4.49,13,12.15,13,6.82,0,11.32-5,11.82-12.32a2.13,2.13,0,0,1,2.33-2.17h9.82a2,2,0,0,1,2.16,2.17c-.83,15.48-11.31,25.8-26.29,25.8C335.39,149.84,324.73,139,324.73,122.7Zm26.63-21c7.66,0,12.15-4.83,12.15-11.82,0-8-4.66-13.14-12.32-13.14-7.82,0-12.15,5.16-12.15,13.14v11.82Z"/><path class="cls-1" d="M390.23,145.84V93.74c0-18,11.66-29.12,28.46-29.12h6.16A2.06,2.06,0,0,1,427,66.95v9a2,2,0,0,1-2.16,2.16h-6c-8.65,0-14.31,5.49-14.31,14.48v53.26a2.11,2.11,0,0,1-2.33,2.33h-9.65A2.11,2.11,0,0,1,390.23,145.84Z"/><path class="cls-1" d="M451.15,64.95a2.11,2.11,0,0,1,2.33,2.33v56.09c0,7.82,4.34,13.14,11.65,13.14s11.66-5.32,11.66-13.14V67.28a2.11,2.11,0,0,1,2.33-2.33h9.64a2.12,2.12,0,0,1,2.34,2.33v55.59c0,15.81-10.5,27.13-26,27.13s-26-11.32-26-27.13V67.28a2.11,2.11,0,0,1,2.33-2.33Z"/><path class="cls-1" d="M501.09,140.51a9,9,0,0,1,9.32-9.32,9.13,9.13,0,0,1,9.48,9.32,9.24,9.24,0,0,1-9.48,9.33A9.11,9.11,0,0,1,501.09,140.51Z"/><path class="cls-1" d="M622.58,90.25v55.58a2.06,2.06,0,0,1-2.16,2.33h-9.65a2.11,2.11,0,0,1-2.33-2.33V89.75c0-7.82-3.82-13-10.82-13s-11,5.16-11,13v56.09a2.06,2.06,0,0,1-2.16,2.33h-9.65a2.11,2.11,0,0,1-2.33-2.33V89.75c0-7.82-3.83-13-10.82-13s-11,5.16-11,13v56.09a2.11,2.11,0,0,1-2.33,2.33h-9.48a2.11,2.11,0,0,1-2.33-2.33V90.25c0-15.81,10-27.13,25.13-27.13a21.33,21.33,0,0,1,18,10.15,21.13,21.13,0,0,1,18-10.15C612.77,63.12,622.58,74.44,622.58,90.25Z"/><path class="cls-1" d="M636.91,122.7V90.08c.16-15.81,10.48-26.79,26.46-26.79C679,63.12,690,74.27,690,89.58c0,14.65-10.64,25.13-26.46,25.13H651.22v8.65c0,7.66,4.5,13,12.15,13,6.83,0,11.32-5,11.82-12.32a2.14,2.14,0,0,1,2.33-2.17h9.82a2,2,0,0,1,2.17,2.17c-.83,15.48-11.32,25.8-26.3,25.8C647.57,149.84,636.91,139,636.91,122.7Zm26.63-21c7.65,0,12.15-4.83,12.15-11.82,0-8-4.66-13.14-12.32-13.14-7.82,0-12.15,5.16-12.15,13.14v11.82Z"/></g><g id="ロゴマーク"><path class="cls-1" d="M173.33,166.67A76.3,76.3,0,0,1,124,148.59a68.05,68.05,0,0,0,24.71-24.69,6.67,6.67,0,1,0-11.53-6.69,54.77,54.77,0,0,1-23,21.51A76.63,76.63,0,0,1,173.33,13.33a6.67,6.67,0,0,0,0-13.33A90.13,90.13,0,0,0,90,56.06,90.12,90.12,0,0,0,6.67,0a6.67,6.67,0,1,0,0,13.33A76.75,76.75,0,0,1,83.33,90a76.32,76.32,0,0,1-17.52,48.73,54.76,54.76,0,0,1-23-21.51,6.67,6.67,0,1,0-11.53,6.69A68,68,0,0,0,56,148.59,76.3,76.3,0,0,1,6.67,166.67a6.67,6.67,0,1,0,0,13.33,89.68,89.68,0,0,0,62.68-25.51,66.57,66.57,0,0,0,41.3,0A89.68,89.68,0,0,0,173.33,180a6.67,6.67,0,0,0,0-13.33ZM79.11,143.32A89.83,89.83,0,0,0,90,123.94a89.9,89.9,0,0,0,10.89,19.38,53.56,53.56,0,0,1-21.77,0Z"/><ellipse class="cls-1" cx="41.11" cy="76.83" rx="7.17" ry="11.18"/><ellipse class="cls-1" cx="138.89" cy="76.83" rx="7.17" ry="11.18"/></g></g></g></svg>